<?xml version="1.0" encoding="utf-8"?>
<!-- Generator: Adobe Illustrator 16.0.0, SVG Export Plug-In . SVG Version: 6.00 Build 0)  -->
<!DOCTYPE svg PUBLIC "-//W3C//DTD SVG 1.1//EN" "http://www.w3.org/Graphics/SVG/1.1/DTD/svg11.dtd">
<svg version="1.1" id="Layer_1" xmlns="http://www.w3.org/2000/svg" xmlns:xlink="http://www.w3.org/1999/xlink" x="0px" y="0px"
	 width="612px" height="570px" viewBox="0 0 612 570" enable-background="new 0 0 612 570" xml:space="preserve">
<g id="Layer_1_1_">
</g>
<g id="Layer_3" display="none">
</g>
<g id="Layer_5" display="none">
</g>
<g id="Layer_4">
	<g>
		<rect x="63.879" y="99.368" fill="#DEE8F9" width="490.38" height="63.754"/>
		<g>
			<circle fill="#466BD9" cx="100.667" cy="129.889" r="4.949"/>
			<circle fill="#466BD9" cx="136.214" cy="129.889" r="4.949"/>
			<circle fill="#466BD9" cx="171.762" cy="129.889" r="4.949"/>
			<circle fill="#466BD9" cx="519.968" cy="129.889" r="4.949"/>
		</g>
		<g>
			<g>
				<path fill="#466BD9" d="M537.177,91.753H81.916c-11.46,0-20.784,9.324-20.784,20.784v349.815
					c0,11.461,9.323,20.785,20.784,20.785h455.261c11.461,0,20.786-9.324,20.786-20.785V112.537
					C557.96,101.077,548.638,91.753,537.177,91.753z M537.177,473.241H81.916c-6.003,0-10.886-4.883-10.886-10.886V112.537
					c0-6.003,4.884-10.886,10.886-10.886h455.261c6.003,0,10.887,4.884,10.887,10.886v45.591H84.884
					c-2.733,0-4.949,2.214-4.949,4.948c0,2.734,2.215,4.949,4.949,4.949h463.179v294.327
					C548.063,468.356,543.18,473.241,537.177,473.241z"/>
			</g>
		</g>
	</g>
</g>
<path fill="#466BD9" d="M426.923,296.453l-15.927-2.57c-1.908-6.109-4.373-12.054-7.357-17.737l9.451-13.089
	c3.033-4.199,2.577-9.906-1.086-13.569l-26.714-26.715c-3.664-3.663-9.371-4.12-13.571-1.088l-13.091,9.454
	c-5.683-2.984-11.625-5.449-17.735-7.355l-2.571-15.932c-0.825-5.113-5.184-8.826-10.363-8.826h-37.779
	c-5.179,0-9.539,3.71-10.364,8.826l-2.57,15.932c-6.111,1.907-12.054,4.371-17.736,7.355l-13.089-9.454
	c-4.2-3.032-9.906-2.575-13.57,1.088l-26.716,26.716c-3.663,3.662-4.12,9.369-1.087,13.569l9.453,13.09
	c-2.984,5.683-5.449,11.626-7.355,17.735l-15.932,2.57c-5.113,0.825-8.824,5.184-8.824,10.364v37.783
	c0,5.181,3.711,9.54,8.826,10.367l15.932,2.568c1.907,6.111,4.371,12.055,7.355,17.737l-9.454,13.09
	c-3.032,4.199-2.574,9.906,1.087,13.57l26.715,26.717c3.663,3.662,9.37,4.121,13.57,1.087l13.089-9.454
	c5.683,2.983,11.626,5.446,17.736,7.354l2.57,15.932c0.825,5.115,5.185,8.826,10.364,8.826h37.781c5.18,0,9.537-3.711,10.363-8.827
	l2.57-15.931c6.111-1.908,12.054-4.37,17.735-7.354l13.092,9.454c4.2,3.031,9.906,2.573,13.571-1.087l26.714-26.717
	c3.663-3.664,4.12-9.368,1.087-13.571l-9.452-13.089c2.983-5.683,5.447-11.626,7.357-17.737l15.929-2.568
	c5.116-0.826,8.825-5.187,8.825-10.367v-37.783C435.75,301.638,432.039,297.278,426.923,296.453z M309.068,371.706
	c-25.362,0-45.998-20.635-45.998-45.998s20.634-45.999,45.998-45.999c25.363,0,46,20.636,46,45.999S334.432,371.706,309.068,371.706
	z"/>
<ellipse fill="#466BD9" cx="309.068" cy="325.709" rx="36.103" ry="36.103"/>
</svg>
