<?xml version="1.0" encoding="utf-8"?>
<!-- Generator: Adobe Illustrator 16.0.0, SVG Export Plug-In . SVG Version: 6.00 Build 0)  -->
<!DOCTYPE svg PUBLIC "-//W3C//DTD SVG 1.1//EN" "http://www.w3.org/Graphics/SVG/1.1/DTD/svg11.dtd">
<svg version="1.1" id="Layer_1" xmlns="http://www.w3.org/2000/svg" xmlns:xlink="http://www.w3.org/1999/xlink" x="0px" y="0px"
	 width="612px" height="570px" viewBox="0 0 612 570" enable-background="new 0 0 612 570" xml:space="preserve">
<g id="Layer_1_1_">
</g>
<g id="Layer_3" display="none">
</g>
<g id="Layer_5" display="none">
</g>
<g id="layer1">
	<path id="path2546" fill="#466BD9" d="M211.539,171.491v14.75h-44.4c-8.181,0.037-14.787,6.691-14.757,14.873v236.931
		c-0.05,8.188,6.568,14.873,14.757,14.9h266.669c8.246,0.028,14.931-6.653,14.872-14.9V201.114
		c0.028-8.227-6.656-14.902-14.872-14.873h-44.402v-14.75c-0.244-19.908-29.874-19.677-29.659,0v14.75H241.169v-14.75
		C241.205,151.684,211.578,151.713,211.539,171.491z M182.017,215.863h29.522v14.901c0,19.823,29.63,19.539,29.63,0v-14.901h118.577
		v14.901c0,19.994,29.659,19.524,29.659,0v-14.901h29.643v44.524H182.017V215.863z M182.017,289.896h237.031v133.391H182.017
		V289.896z M211.539,304.768c-18.481,0-19.659,29.66,0,29.66h29.63c20.185,0.028,20.645-29.602,0-29.66H211.539z M285.716,304.768
		c-19.732,0.059-20.197,29.688,0,29.66h29.631c19.849,0.028,21.005-29.595,0-29.66H285.716z M359.746,304.768
		c-19.458,0.059-19.69,29.688,0,29.66h29.659c19.647,0,20.789-29.602,0-29.66H359.746z M211.539,364.042
		c-19.356,0-19.356,29.63,0,29.63h29.63c19.444,0.04,20.097-29.59,0-29.63H211.539z M285.716,364.042
		c-20.457,0-20.109,29.63,0,29.63h29.631c19.008,0.04,19.342-29.63,0-29.63H285.716z M359.746,364.042
		c-19.75,0.04-19.75,29.63,0,29.63h29.659c19.635,0.04,20.386-29.59,0-29.63H359.746z"/>
</g>
</svg>
