<?xml version="1.0" encoding="utf-8"?>
<!-- Generator: Adobe Illustrator 16.0.0, SVG Export Plug-In . SVG Version: 6.00 Build 0)  -->
<!DOCTYPE svg PUBLIC "-//W3C//DTD SVG 1.1//EN" "http://www.w3.org/Graphics/SVG/1.1/DTD/svg11.dtd">
<svg version="1.1" id="Layer_1" xmlns="http://www.w3.org/2000/svg" xmlns:xlink="http://www.w3.org/1999/xlink" x="0px" y="0px"
	 width="612px" height="570px" viewBox="0 0 612 570" enable-background="new 0 0 612 570" xml:space="preserve">
<g id="Layer_1_1_">
</g>
<g id="Layer_3" display="none">
</g>
<g id="Layer_5" display="none">
</g>
<g id="layer1">
	<path id="path2546" fill="#466BD9" d="M189.798,139.069v18.305h-55.102c-10.153,0.045-18.351,8.304-18.314,18.458v294.041
		c-0.062,10.162,8.152,18.458,18.314,18.492h330.946c10.234,0.033,18.53-8.258,18.457-18.492V175.833
		c0.034-10.21-8.26-18.494-18.457-18.458h-55.104v-18.305c-0.303-24.707-37.074-24.42-36.808,0v18.305H226.57v-18.305
		C226.615,114.488,189.847,114.523,189.798,139.069z M153.16,194.137h36.638v18.493c0,24.601,36.772,24.249,36.772,0v-18.493
		h147.158v18.493c0,24.813,36.809,24.23,36.809,0v-18.493h36.788v55.256H153.16V194.137z M153.16,286.015h294.165v165.543H153.16
		V286.015z M189.798,304.47c-22.936,0-24.398,36.811,0,36.811h36.772c25.051,0.035,25.621-36.736,0-36.811H189.798z M281.855,304.47
		c-24.488,0.075-25.065,36.846,0,36.811h36.773c24.634,0.035,26.068-36.729,0-36.811H281.855z M373.729,304.47
		c-24.147,0.075-24.436,36.846,0,36.811h36.809c24.383,0,25.801-36.736,0-36.811H373.729z M189.798,378.032
		c-24.021,0-24.021,36.771,0,36.771h36.772c24.13,0.05,24.941-36.722,0-36.771H189.798z M281.855,378.032
		c-25.389,0-24.956,36.771,0,36.771h36.773c23.59,0.05,24.005-36.771,0-36.771H281.855z M373.729,378.032
		c-24.51,0.05-24.51,36.771,0,36.771h36.809c24.367,0.05,25.3-36.722,0-36.771H373.729z"/>
</g>
</svg>
