<?xml version="1.0" encoding="utf-8"?>
<!-- Generator: Adobe Illustrator 16.0.0, SVG Export Plug-In . SVG Version: 6.00 Build 0)  -->
<!DOCTYPE svg PUBLIC "-//W3C//DTD SVG 1.1//EN" "http://www.w3.org/Graphics/SVG/1.1/DTD/svg11.dtd">
<svg version="1.1" id="Layer_1" xmlns="http://www.w3.org/2000/svg" xmlns:xlink="http://www.w3.org/1999/xlink" x="0px" y="0px"
	 width="612px" height="570px" viewBox="0 0 612 570" enable-background="new 0 0 612 570" xml:space="preserve">
<g id="Layer_1_1_">
</g>
<g id="Layer_3" display="none">
</g>
<g id="Layer_5" display="none">
</g>
<rect x="70.17" y="68.813" fill="none" width="486" height="486"/>
<path fill="#466BD9" d="M480.602,387.825c21.084-20.777,33.735-46.846,33.735-75.291c0-61.336-58.653-112.016-135.096-121.063
	c-24.151-44.163-80.888-75.214-147.054-75.214c-88.096,0-159.477,54.896-159.477,122.673c0,28.369,12.651,54.438,33.736,75.292
	c-11.731,23.537-28.599,41.786-28.905,42.093c-4.831,5.137-6.21,12.65-3.374,19.168c2.76,6.518,9.2,10.733,16.254,10.733
	c41.019,0,74.142-15.488,95.992-29.749c7.054,1.611,14.337,2.838,21.775,3.757c24.075,44.01,80.582,74.985,146.672,74.985
	c15.948,0,31.283-1.84,45.85-5.214c21.851,14.184,54.896,29.748,95.992,29.748c7.054,0,13.417-4.217,16.255-10.734
	c2.761-6.516,1.457-14.03-3.373-19.167C509.277,429.612,492.332,411.364,480.602,387.825z M179.437,317.058l-13.111,8.512
	c-10.811,6.977-21.852,12.496-33.046,16.407c2.071-3.604,4.141-7.438,6.134-11.348l11.884-23.845L132.284,288
	c-10.35-10.273-22.771-27.064-22.771-49.07c0-46.539,56.2-85.871,122.675-85.871c66.473,0,122.673,39.333,122.673,85.871
	c0,46.54-56.2,85.873-122.673,85.873c-12.651,0-25.302-1.458-37.57-4.293L179.437,317.058L179.437,317.058z M454.764,361.604
	l-18.938,18.709l11.884,23.845c1.994,3.909,4.064,7.743,6.134,11.347c-11.193-3.91-22.234-9.43-33.044-16.407l-13.111-8.511
	l-15.259,3.527c-12.267,2.836-24.917,4.293-37.568,4.293c-41.402,0-78.358-15.411-100.669-38.105
	c77.668-8.28,137.472-59.344,137.472-121.371c0-2.606-0.306-5.137-0.536-7.667c49.376,11.118,86.407,43.549,86.407,81.271
	C477.534,334.539,465.114,351.33,454.764,361.604z"/>
</svg>
