<?xml version="1.0" encoding="utf-8"?>
<!-- Generator: Adobe Illustrator 16.0.0, SVG Export Plug-In . SVG Version: 6.00 Build 0)  -->
<!DOCTYPE svg PUBLIC "-//W3C//DTD SVG 1.1//EN" "http://www.w3.org/Graphics/SVG/1.1/DTD/svg11.dtd">
<svg version="1.1" id="Layer_1" xmlns="http://www.w3.org/2000/svg" xmlns:xlink="http://www.w3.org/1999/xlink" x="0px" y="0px"
	 width="612px" height="570px" viewBox="0 0 612 570" enable-background="new 0 0 612 570" xml:space="preserve">
<g id="XMLID_4_">
	<path id="XMLID_5_" fill="#466BD9" d="M272.281,385.598c-1.757-0.716-3.784-1.146-5.811-1.146c-9.324,0-16.892,8.018-16.892,17.897
		c0,9.879,7.568,17.896,16.892,17.896c9.325,0,16.892-8.018,16.892-17.896c0-3.007-0.676-5.87-2.027-8.448
		C279.444,390.18,276.2,387.172,272.281,385.598z"/>
	<ellipse id="XMLID_33_" fill="#466BD9" cx="181.74" cy="206.482" rx="74.325" ry="78.748"/>
	<path id="XMLID_1_" fill="#466BD9" d="M319.962,434c0.271-11.741,2.618-38.813,15.474-57.51c-5.135-12.027,0-14.99-16.262-28.835
		c-4.189-3.293-8.514-6.442-12.839-9.306c-1.216,5.154-2.566,10.309-4.188,15.177c-3.514,10.451-7.974,20.331-13.244,29.351
		c4.19,5.298,6.757,12.171,6.757,19.615c0,9.021-3.783,17.325-9.729,22.909c-5.135,4.868-11.892,7.73-19.189,7.73
		c-0.676,0-1.486,0-2.162,0c-15-1.145-26.893-14.317-26.893-30.496c0-16.896,12.974-30.641,28.919-30.641
		c4.595,0,8.919,1.146,12.703,3.15c5.405-9.163,9.594-19.329,12.838-30.211c1.216-4.151,2.297-8.591,3.378-13.028
		c-4.459-2.578-8.783-5.011-12.838-7.159l-3.108-1.719c-4.595-2.434-9.189-5.011-13.784-7.301c-0.135,0-0.135-0.145-0.27-0.145
		c-4.865-2.434-9.866-4.581-14.865-6.157c-0.811-0.285-1.757-0.715-2.568-1.001c0,0-0.135,0.143-0.135,0.286
		c-1.486,2.435-29.325,43.239-35.811,51.83c-2.163,3.007-6.622,8.161-9.325,12.026v-65.86h-40.541v66.721
		c-2.702-3.866-7.297-9.164-9.459-12.027c-6.757-9.163-35.135-50.685-36.757-53.262c0-0.144-0.135-0.144-0.271-0.286
		c-0.811,0.286-1.756,0.715-2.568,1.001c-5.135,1.576-10.135,3.866-15,6.157c0,0-0.135,0-0.271,0.144
		c-4.595,2.291-9.189,4.867-13.784,7.302l-2.973,1.719c-2.163,1.145-4.189,2.29-6.352,3.436c1.621,3.722,3.243,7.445,5.135,11.168
		c1.487,3.293,3.244,6.585,5,9.88c1.622-0.287,3.378-0.43,5.135-0.43c19.459,0,38.919,18.47,47.433,44.672
		c0.27,0.858,0.541,1.574,0.811,2.434c0.811,2.577,1.757,5.154,2.297,8.161c0.406,2.004,0.541,3.865,0.541,5.584
		c0,5.297-1.892,8.733-5.676,10.309c-1.081,2.863-3.244,4.868-6.081,5.87c-1.081,0.43-2.162,0.572-3.244,0.572
		c-4.324,0-8.108-2.863-9.459-7.158c-1.757-5.584,1.081-11.598,6.216-13.459c1.756-0.716,3.784-0.858,5.541-0.286
		c-0.406-1.718-0.946-3.437-1.622-5.298v-0.144c-0.271-0.858-0.541-1.719-0.811-2.577c-6.757-20.903-21.757-36.08-35.811-36.08
		c-1.892,0-3.649,0.286-5.406,0.858c-14.595,6.014-20.135,30.497-12.433,54.694c0.271,0.859,0.541,1.861,0.811,2.72
		c0.406,1.575,0.811,3.008,1.352,4.296c0.271,0.716,0.541,1.289,0.811,1.861c0.135,0.43,0.405,0.858,0.54,1.145
		c0,0.145,0.135,0.287,0.27,0.431c1.082-4.582,5.136-8.019,9.73-8.019c5.541,0,10,4.869,10,10.738c0,0.717,0,1.433-0.135,2.005
		c0,0,0,0,0.135,0c-0.676,3.723-3.108,6.872-6.757,8.162c-2.568,0.858-5.406,0.714-7.838-0.717c-1.217,0.43-1.892,0.571-3.244,0.858
		l-0.27,0.145c-0.811,0.142-1.622,0.286-2.432,0.286c-6.216,0-9.73-7.302-10.811-9.736c-1.216-2.721-2.027-5.441-2.838-8.019
		c-0.27-0.859-0.54-1.575-0.811-2.434c-0.676-1.861-1.216-3.866-1.622-5.87c-5.946-24.055-0.675-48.251,13.243-59.849
		c-1.351-2.434-2.567-4.868-3.783-7.302c-2.027-4.153-4.055-8.448-5.812-12.601c-6.216,3.865-12.567,8.018-18.378,12.743
		c-10.541,8.161-21.081,17.324-26.217,29.352c-4.594,10.595-4.054,23.338-3.784,35.508l0.136,3.723
		c0,1.289,0.135,35.078,0.135,55.123H224.5"/>
</g>
<g id="Layer_1_1_">
</g>
<g id="Layer_3" display="none">
</g>
<g id="Layer_5" display="none">
</g>
<g id="Layer_4">
	<g>
		<path fill="#E1F0FF" d="M528.891,301.495l-18.854,117.596H325.258l-5.296,19.198v28.645H528.89v-28.645L551.592,308.8
			C551.592,308.8,539.279,295.99,528.891,301.495z"/>
		<g>
			<g>
				<path fill="#466BD9" d="M352.861,244.313v10.786c0,3.997,2.225,7.587,5.806,9.365c1.487,0.74,3.084,1.104,4.671,1.104
					c2.229,0,4.438-0.72,6.304-2.13l19.178-14.516h122.428c11.389,0,20.649-9.263,20.649-20.649V132.79
					c0-11.386-9.262-20.649-20.649-20.649H365.851c-11.389,0-20.65,9.264-20.65,20.649v95.483
					C345.2,234.605,348.02,240.417,352.861,244.313z"/>
				<path fill="#466BD9" d="M125.623,444.922c2.716,0,4.917,2.199,4.917,4.916v21.867h392.579c7.05,0,12.783-5.733,12.783-12.782
					c0-2.716-2.203-4.915-4.918-4.915s-4.916,2.199-4.916,4.915c0,1.628-1.324,2.95-2.952,2.95H325.813v-8.556
					c0-2.718-2.201-4.918-4.916-4.918c-2.717,0-4.918,2.2-4.918,4.918v8.556H239.12c-1.626,0-2.95-1.32-2.95-2.95v-11.214
					c0-1.627,1.324-2.949,2.95-2.949h292.035c2.433,0,4.498-1.777,4.86-4.184l19.413-128.551c0.558-3.69-0.519-7.424-2.948-10.251
					c-2.429-2.822-5.963-4.442-9.689-4.442H348.443c-6.373,0-11.688,4.572-12.64,10.876l-19.137,126.717H296.96l-0.83-4.361
					 M545.707,310.553l-18.779,124.37H326.612l18.914-125.251c0.218-1.456,1.445-2.512,2.917-2.512h194.349
					c1.18,0,1.906,0.644,2.238,1.026C545.357,308.572,545.883,309.388,545.707,310.553z"/>
			</g>
			<g>
				<g>
					<g>
						<path fill="#FFFFFF" d="M492.818,166.905H384.277c-2.716,0-4.918-2.2-4.918-4.917s2.202-4.918,4.918-4.918h108.537
							c2.717,0,4.917,2.201,4.917,4.918C497.731,164.705,495.531,166.905,492.818,166.905z"/>
					</g>
					<g>
						<path fill="#FFFFFF" d="M443.658,203.992h-59.382c-2.716,0-4.918-2.202-4.918-4.917c0-2.718,2.202-4.919,4.918-4.919h59.383
							c2.716,0,4.918,2.201,4.918,4.919C448.577,201.791,446.373,203.992,443.658,203.992z"/>
					</g>
					<g>
						<path fill="#FFFFFF" d="M492.818,203.992h-19.425c-2.716,0-4.919-2.202-4.919-4.917c0-2.718,2.203-4.919,4.919-4.919h19.423
							c2.715,0,4.917,2.201,4.917,4.919C497.733,201.791,495.531,203.992,492.818,203.992z"/>
					</g>
				</g>
				<g>
					<path fill="#466BD9" d="M435.777,391.474c-5.576,0-10.5-2.21-13.857-6.219c-3.361-4.018-4.721-9.513-3.728-15.078
						c1.959-10.972,12.116-19.566,23.123-19.566c5.579,0,10.502,2.212,13.857,6.222c3.362,4.014,4.722,9.511,3.729,15.074v0.003
						C456.944,382.878,446.785,391.474,435.777,391.474z M441.316,360.444c-6.177,0-12.334,5.248-13.442,11.462
						c-0.489,2.731,0.076,5.231,1.587,7.037c1.458,1.739,3.699,2.697,6.318,2.697c6.181,0,12.337-5.249,13.443-11.464
						c0.49-2.731-0.075-5.23-1.585-7.035C446.179,361.401,443.935,360.444,441.316,360.444z M454.063,371.042h0.009H454.063z"/>
				</g>
			</g>
			<g>
				<path fill="#FFFFFF" d="M188.42,424.83c-24.233,0-45.516-16.34-51.754-39.735c-0.699-2.623,0.86-5.317,3.482-6.018
					c2.628-0.696,5.317,0.859,6.019,3.482c5.093,19.1,22.469,32.437,42.253,32.437c19.785,0,37.16-13.337,42.252-32.437
					c0.699-2.623,3.388-4.184,6.018-3.482c2.623,0.701,4.184,3.395,3.482,6.018C233.934,408.49,212.652,424.83,188.42,424.83z"/>
			</g>
		</g>
	</g>
</g>
</svg>
