<?xml version="1.0" encoding="utf-8"?>
<!-- Generator: Adobe Illustrator 16.0.0, SVG Export Plug-In . SVG Version: 6.00 Build 0)  -->
<!DOCTYPE svg PUBLIC "-//W3C//DTD SVG 1.1//EN" "http://www.w3.org/Graphics/SVG/1.1/DTD/svg11.dtd">
<svg version="1.1" id="Layer_1" xmlns="http://www.w3.org/2000/svg" xmlns:xlink="http://www.w3.org/1999/xlink" x="0px" y="0px"
	 width="612px" height="570px" viewBox="0 0 612 570" enable-background="new 0 0 612 570" xml:space="preserve">
<g id="Layer_1_1_">
</g>
<g id="Layer_3" display="none">
</g>
<g id="Layer_5" display="none">
</g>
<g id="Layer_4">
	<g>
		<path fill="#E1F0FF" d="M528.891,301.495l-18.853,117.596h-184.78l-5.296,19.199v28.644H528.89V438.29l22.702-129.49
			C551.592,308.8,539.279,295.99,528.891,301.495z"/>
		<g>
			<g>
				<path fill="#466BD9" d="M352.861,244.313v10.786c0,3.997,2.224,7.587,5.806,9.365c1.487,0.74,3.083,1.105,4.67,1.105
					c2.229,0,4.438-0.72,6.304-2.13l19.178-14.516h122.428c11.388,0,20.649-9.263,20.649-20.649v-95.484
					c0-11.385-9.262-20.649-20.649-20.649H365.851c-11.389,0-20.65,9.264-20.65,20.649v95.484
					C345.201,234.605,348.02,240.417,352.861,244.313z"/>
				<path fill="#466BD9" d="M552.481,301.775c-2.429-2.823-5.963-4.443-9.689-4.443H348.443c-6.373,0-11.688,4.573-12.64,10.876
					l-19.136,126.717h-19.707l-0.83-4.361c-1.773-9.092-5.115-17.555-9.708-25.134c34.615-28.887,27.779-52.821,20.556-78.111
					c-2.844-9.958-5.741-20.138-6.687-31.45c2.25-5.941,3.49-12.374,3.49-19.095v-15.092c1.135-5.77,1.764-11.979,1.843-18.491
					c0.036-2.715-2.139-4.944-4.854-4.978c-0.021,0-0.042,0-0.063,0c-1.328,0-2.535,0.532-3.42,1.391
					c-0.641-0.965-1.322-1.906-2.049-2.812c-1.699-2.117-4.794-2.456-6.912-0.759c-2.118,1.699-2.458,4.793-0.758,6.912
					c4.173,5.204,6.38,11.488,6.38,18.171c0,15.415-12.064,28.06-27.246,29.003v-46.497c0-2.717-2.201-4.917-4.917-4.917
					c-2.714,0-4.917,2.2-4.917,4.917v56.053c0,7.387-1.19,14.498-3.367,21.17c-1.254,0.107-2.521,0.175-3.803,0.175h-19.431
					c-2.715,0-4.917,2.201-4.917,4.917c0,2.717,2.201,4.918,4.917,4.918h19.057c-11.362,22.107-34.391,37.275-60.91,37.275
					c-37.746,0-68.454-30.708-68.454-68.453v-63.839c0-2.717-2.201-4.917-4.917-4.917c-2.715,0-4.917,2.2-4.917,4.917v54.283
					c-15.181-0.942-27.246-13.588-27.246-29.004c0-7.346,2.764-14.363,7.784-19.762c1.85-1.987,1.737-5.099-0.252-6.947
					c-1.987-1.847-5.099-1.736-6.948,0.254c-1.436,1.544-2.726,3.192-3.878,4.918c-0.89-0.884-2.114-1.43-3.464-1.43
					c-0.02,0-0.041,0-0.06,0c-2.715,0.033-4.89,2.26-4.856,4.976c0.078,6.566,0.71,12.835,1.861,18.653
					c0.084,4.987,1.106,9.752,2.906,14.116c2.854,19.968-1.701,35.959-6.119,51.426c-7.224,25.291-14.059,49.225,20.56,78.114
					c-4.594,7.584-7.939,16.053-9.713,25.15l-6.717,35.286c-0.273,1.438,0.107,2.925,1.042,4.054
					c0.934,1.129,2.323,1.781,3.788,1.781h41.892v-21.868c0-2.716,2.201-4.916,4.917-4.916s4.917,2.2,4.917,4.916v21.868H523.12
					c7.049,0,12.783-5.734,12.783-12.783c0-2.715-2.203-4.915-4.918-4.915s-4.916,2.2-4.916,4.915c0,1.628-1.324,2.95-2.952,2.95
					H325.813v-8.555c0-2.718-2.201-4.918-4.916-4.918c-2.717,0-4.918,2.2-4.918,4.918v8.555H239.12c-1.626,0-2.95-1.32-2.95-2.95
					V447.71c0-1.628,1.324-2.95,2.95-2.95h292.036c2.432,0,4.498-1.777,4.86-4.183l19.413-128.551
					C555.987,308.335,554.911,304.602,552.481,301.775z M266.699,299.968c8.947-0.414,17.103-3.877,23.479-9.356
					c0.029,1.221,0.079,2.431,0.151,3.624c-4.868,11.279-14.282,20.148-25.938,24.264
					C265.866,312.558,266.674,306.354,266.699,299.968z M260.688,329.727c12.808-2.656,23.964-9.856,31.72-19.828
					c1.422,7.135,3.313,13.796,5.118,20.114c7.062,24.725,12.237,42.866-16.746,67.315c-13.179-16.539-32.915-27.391-54.836-28.982
					C241.47,359.824,253.815,346.195,260.688,329.727z M96.063,397.331c-28.984-24.45-23.811-42.592-16.748-67.316
					c3.333-11.673,6.985-24.505,7.345-39.385c6.378,5.472,14.537,8.926,23.481,9.34c0.11,29.448,16.563,55.107,40.74,68.381
					C128.967,369.944,109.238,380.792,96.063,397.331z M545.708,310.553l-18.78,124.37H326.612l18.914-125.251
					c0.218-1.456,1.445-2.512,2.917-2.512h194.349c1.179,0,1.906,0.644,2.238,1.027
					C545.357,308.572,545.883,309.388,545.708,310.553z"/>
			</g>
			<g>
				<g>
					<g>
						<path fill="#FFFFFF" d="M492.818,166.905H384.277c-2.716,0-4.918-2.201-4.918-4.917c0-2.717,2.202-4.918,4.918-4.918h108.537
							c2.717,0,4.917,2.201,4.917,4.918C497.731,164.705,495.531,166.905,492.818,166.905z"/>
					</g>
					<g>
						<path fill="#FFFFFF" d="M443.659,203.992h-59.382c-2.716,0-4.918-2.202-4.918-4.917c0-2.717,2.202-4.918,4.918-4.918h59.383
							c2.715,0,4.918,2.201,4.918,4.918C448.578,201.791,446.374,203.992,443.659,203.992z"/>
					</g>
					<g>
						<path fill="#FFFFFF" d="M492.818,203.992h-19.425c-2.716,0-4.919-2.202-4.919-4.917c0-2.717,2.203-4.918,4.919-4.918h19.423
							c2.715,0,4.917,2.201,4.917,4.918C497.733,201.791,495.531,203.992,492.818,203.992z"/>
					</g>
				</g>
				<g>
					<path fill="#466BD9" d="M435.777,391.474c-5.576,0-10.5-2.21-13.858-6.219c-3.361-4.017-4.72-9.513-3.727-15.078
						c1.959-10.972,12.116-19.566,23.123-19.566c5.579,0,10.502,2.212,13.857,6.221c3.363,4.014,4.722,9.511,3.729,15.075v0.002
						C456.944,382.878,446.786,391.474,435.777,391.474z M441.316,360.444c-6.177,0-12.334,5.248-13.442,11.462
						c-0.49,2.731,0.076,5.231,1.586,7.037c1.458,1.739,3.7,2.697,6.319,2.697c6.18,0,12.337-5.249,13.443-11.464
						c0.49-2.731-0.075-5.23-1.585-7.035C446.179,361.401,443.935,360.444,441.316,360.444z M454.063,371.042h0.009H454.063z"/>
				</g>
			</g>
			<g>
				<path fill="#466BD9" d="M218.217,342.907h-7.695c-9.359,0-16.973-7.615-16.973-16.974c0-9.359,7.614-16.972,16.973-16.972h7.695
					c9.359,0,16.972,7.612,16.972,16.972C235.188,335.292,227.576,342.907,218.217,342.907z M210.522,318.795
					c-3.936,0-7.14,3.201-7.14,7.139s3.203,7.143,7.14,7.143h7.695c3.937,0,7.139-3.205,7.139-7.143s-3.203-7.139-7.139-7.139
					H210.522z"/>
			</g>
			<g>
				<path fill="#FFFFFF" d="M188.42,424.831c-24.233,0-45.515-16.34-51.754-39.736c-0.699-2.623,0.861-5.317,3.483-6.018
					c2.628-0.696,5.317,0.86,6.018,3.483c5.093,19.099,22.469,32.436,42.253,32.436c19.785,0,37.16-13.337,42.252-32.436
					c0.699-2.623,3.388-4.184,6.018-3.483c2.623,0.702,4.183,3.395,3.482,6.018C233.934,408.491,212.652,424.831,188.42,424.831z"/>
			</g>
			<path fill="#466BD9" d="M276.598,157.87c-15.038-18.782-42.543-41.172-88.178-41.172c-45.646,0-73.154,22.398-88.191,41.188
				c-17.532,21.903-28.088,51.104-28.963,80.111c-0.041,1.318,0.454,2.595,1.365,3.548c0.912,0.951,2.17,1.497,3.488,1.517
				c0.792,0.012,19.637,0.241,39.254-2.31c22.154-2.881,36.551-8.005,43.627-15.575c18.103,19.271,50.296,24.436,79.643,24.434
				c30.213,0,57.405-5.48,63.05-6.695c2.32-0.5,3.955-2.584,3.881-4.957C304.689,208.958,294.128,179.765,276.598,157.87z"/>
		</g>
	</g>
</g>
</svg>
