<?xml version="1.0" encoding="utf-8"?>
<!-- Generator: Adobe Illustrator 16.0.0, SVG Export Plug-In . SVG Version: 6.00 Build 0)  -->
<!DOCTYPE svg PUBLIC "-//W3C//DTD SVG 1.1//EN" "http://www.w3.org/Graphics/SVG/1.1/DTD/svg11.dtd">
<svg version="1.1" id="Layer_1" xmlns="http://www.w3.org/2000/svg" xmlns:xlink="http://www.w3.org/1999/xlink" x="0px" y="0px"
	 width="612px" height="570px" viewBox="0 0 612 570" enable-background="new 0 0 612 570" xml:space="preserve">
<g id="Layer_1_1_">
</g>
<g id="Layer_3" display="none">
</g>
<g id="Layer_5" display="none">
</g>
<g>
	<path fill="#E1EDFF" d="M404.366,282.161v65.75c0,9.104-7.38,16.483-16.481,16.483H249.111v28.126h161.573
		c11.929,0,21.633-9.704,21.633-21.633V282.16L404.366,282.161L404.366,282.161z"/>
	<g>
		<path fill="#466BD9" d="M481.105,369.634h-89.741c-2.848,0-5.152-2.307-5.152-5.152s2.306-5.152,5.152-5.152h89.741
			c8.191,0,14.854-6.663,14.854-14.857c0-8.19-6.663-14.854-14.854-14.854h-73.822c-2.843,0-5.15-2.306-5.15-5.152
			c0-2.845,2.308-5.152,5.15-5.152h73.822c13.872,0,25.154,11.288,25.154,25.156C506.262,358.349,494.978,369.634,481.105,369.634z"
			/>
	</g>
	<g>
		<path fill="#466BD9" d="M481.105,453.766H464.59c-13.871,0-25.157-11.289-25.157-25.158c0-13.873,11.29-25.154,25.157-25.154
			h16.516c13.872,0,25.154,11.285,25.154,25.154C506.262,442.479,494.978,453.766,481.105,453.766z M464.59,413.753
			c-8.191,0-14.855,6.663-14.855,14.854c0,8.191,6.664,14.857,14.855,14.857h16.516c8.191,0,14.854-6.666,14.854-14.857
			c0-8.19-6.663-14.854-14.854-14.854H464.59z"/>
	</g>
	<g>
		<path fill="#466BD9" d="M380.054,453.766h-66.287c-13.875,0-25.156-11.289-25.156-25.158c0-13.873,11.287-25.154,25.156-25.154
			h66.287c13.872,0,25.154,11.285,25.154,25.154C405.21,442.479,393.925,453.766,380.054,453.766z M313.766,413.753
			c-8.191,0-14.854,6.663-14.854,14.854c0,8.191,6.664,14.857,14.854,14.857h66.287c8.191,0,14.852-6.666,14.852-14.857
			c0-8.19-6.66-14.854-14.852-14.854H313.766z"/>
	</g>
	<g>
		<g id="Icon-Envelope" transform="translate(78.000000, 232.000000)">
			<path id="Fill-3" fill="#466BD9" d="M338.434-91.893l-14.117-14.115L193.561,24.748c-16.345,16.344-43.832,16.344-60.177,0
				L2.627-105.266L-11.488-91.15L85.836,6.175l-97.325,97.324l14.115,14.116l97.325-97.325l19.316,19.316
				c11.887,11.887,27.488,18.572,43.833,18.572c16.343,0,31.946-6.685,43.833-18.572l19.315-19.316l97.325,97.325l14.115-14.116
				L240.366,6.174L338.434-91.893"/>
			<path id="Fill-4" fill="#466BD9" d="M310.945,142.874H17.485c-17.087,0-31.204-14.115-31.204-31.203V-97.836
				c0-17.086,14.116-31.202,31.204-31.202h293.459c17.085,0,31.203,14.115,31.203,31.202V111.67
				C342.148,128.759,328.031,142.874,310.945,142.874L310.945,142.874z M16.744-108.979c-5.943,0-10.402,4.457-10.402,10.401
				v209.507c0,5.943,4.458,10.402,10.402,10.402h293.458c5.944,0,10.4-4.458,10.4-10.402V-98.578c0-5.943-4.456-10.402-10.4-10.402
				H16.744V-108.979z"/>
		</g>
	</g>
	<g>
		<ellipse fill="#466BD9" cx="308.228" cy="163.738" rx="31.575" ry="31.575"/>
		<path fill="#466BD9" d="M411.298,138.152l-13.934-2.247c-1.667-5.344-3.821-10.542-6.432-15.513l8.268-11.448
			c2.652-3.672,2.252-8.663-0.952-11.866l-23.363-23.365c-3.205-3.204-8.193-3.603-11.869-0.953l-11.448,8.27
			c-4.971-2.611-10.17-4.767-15.513-6.434l-2.247-13.934c-0.721-4.472-4.533-7.72-9.064-7.72h-33.042
			c-4.531,0-8.343,3.247-9.064,7.72l-2.248,13.933c-5.343,1.667-10.542,3.823-15.51,6.434l-11.449-8.27
			c-3.674-2.651-8.665-2.251-11.868,0.953l-23.366,23.365c-3.204,3.204-3.603,8.194-0.951,11.867l8.267,11.448
			c-2.61,4.97-4.765,10.167-6.433,15.512l-13.933,2.248c-4.472,0.722-7.718,4.534-7.718,9.066v33.042
			c0,4.531,3.246,8.343,7.72,9.066l13.933,2.249c1.668,5.345,3.824,10.542,6.433,15.512l-8.267,11.449
			c-2.653,3.673-2.252,8.664,0.951,11.868l23.364,23.366c3.204,3.204,8.195,3.604,11.868,0.952l11.448-8.269
			c4.97,2.609,10.168,4.765,15.511,6.433l2.249,13.934c0.722,4.473,4.534,7.716,9.064,7.716h33.042c4.531,0,8.343-3.243,9.064-7.717
			l2.248-13.933c5.342-1.671,10.541-3.825,15.511-6.434l11.449,8.269c3.675,2.65,8.665,2.249,11.869-0.952l23.367-23.366
			c3.202-3.204,3.604-8.194,0.95-11.868l-8.269-11.448c2.609-4.971,4.764-10.169,6.435-15.512l13.932-2.248
			c4.475-0.723,7.719-4.534,7.719-9.067V147.22C419.017,142.687,415.771,138.874,411.298,138.152z M308.223,203.968
			c-22.182,0-40.23-18.047-40.23-40.23s18.046-40.231,40.23-40.231c22.183,0,40.23,18.048,40.23,40.231
			C348.452,185.922,330.404,203.968,308.223,203.968z"/>
	</g>
	<g>
		<path fill="#466BD9" d="M521.113,523.544c-3.042,0-6.055-0.983-8.598-2.906l-32.318-24.462H274.355
			c-15.151,0-27.476-12.328-27.476-27.479v-87.015c0-2.846,2.307-5.151,5.151-5.151c2.845,0,5.151,2.306,5.151,5.151v87.015
			c0,9.471,7.705,17.179,17.175,17.179h207.572c1.122,0,2.211,0.366,3.106,1.046l33.701,25.507c1.77,1.341,3.5,0.716,4.162,0.388
			c0.661-0.328,2.201-1.333,2.201-3.553v-20.465c0-1.971,1.126-3.773,2.902-4.635c5.979-2.896,9.694-8.822,9.694-15.461V304.605
			c0-9.471-7.705-17.178-17.18-17.178h-96.005c-2.843,0-5.153-2.305-5.153-5.152c0-2.844,2.312-5.152,5.153-5.152h96.006
			c15.152,0,27.48,12.329,27.48,27.479v164.091c0,9.341-4.854,18.08-12.596,23.101v17.466c0,5.452-3.036,10.35-7.92,12.775
			C525.451,523.047,523.275,523.544,521.113,523.544z"/>
	</g>
</g>
</svg>
