<?xml version="1.0" encoding="utf-8"?>
<!-- Generator: Adobe Illustrator 16.0.0, SVG Export Plug-In . SVG Version: 6.00 Build 0)  -->
<!DOCTYPE svg PUBLIC "-//W3C//DTD SVG 1.1//EN" "http://www.w3.org/Graphics/SVG/1.1/DTD/svg11.dtd">
<svg version="1.1" id="Layer_1" xmlns="http://www.w3.org/2000/svg" xmlns:xlink="http://www.w3.org/1999/xlink" x="0px" y="0px"
	 width="612px" height="570px" viewBox="0 0 612 570" enable-background="new 0 0 612 570" xml:space="preserve">
<g id="Layer_1_1_">
</g>
<g id="Layer_3" display="none">
</g>
<g id="Layer_5" display="none">
</g>
<g>
	<g>
		<g>
			<path fill="#466BD9" d="M376.025,311.023c0-6.516-5.355-11.959-11.959-11.959H163.261c-6.515,0-11.959,5.355-11.959,11.959
				s5.355,11.959,11.959,11.959h200.894C370.67,322.982,376.025,317.627,376.025,311.023z"/>
		</g>
		<g>
			<path fill="#466BD9" d="M365.137,251.406H253.043c-6.516,0-11.959,5.356-11.959,11.959c0,6.515,5.354,11.959,11.959,11.959
				h112.093c6.517,0,11.957-5.355,11.957-11.959C377.007,256.762,371.653,251.406,365.137,251.406z"/>
		</g>
		<g>
			<path fill="#466BD9" d="M402.532,449.979c0,14.727-11.959,26.688-26.687,26.688H151.481c-14.727,0-26.686-11.961-26.686-26.688
				V142.079c0-14.725,11.959-26.684,26.686-26.684h158.144v38.733c0,27.934,22.669,50.603,50.603,50.603h42.305v64.524
				c0.355-0.536,0.712-1.159,0.981-1.695c0.623-0.982,1.339-2.143,2.141-3.392c6.516-10.709,16.868-27.934,18.92-31.236
				c0.536-0.982,1.161-1.875,1.784-2.857v-32.574c0-3.124-0.623-6.158-1.784-8.925c-1.251-2.855-2.944-5.354-5.177-7.497l-86.301-83
				c-2.144-2.052-4.64-3.659-7.317-4.729c-2.768-1.071-5.621-1.696-8.568-1.696h-165.73c-27.935,0-50.603,22.668-50.603,50.603
				v307.9c0,27.934,22.668,50.604,50.603,50.604h224.365c27.935,0,50.604-22.67,50.604-50.604v-59.082
				c-7.676,10.354-15.62,20.617-23.829,30.613v28.289H402.532z"/>
		</g>
		<g>
			<path fill="#466BD9" d="M184.77,170.014c-10.799,4.104-17.403,11.601-17.938,23.471c-0.446,10.442,5.087,17.492,13.744,22.49
				c5.355,3.124,11.245,4.909,16.867,7.318c2.231,0.893,4.284,2.053,6.158,3.481c5.444,4.374,4.551,11.78-1.785,14.726
				c-3.392,1.517-7.051,1.963-10.709,1.606c-5.712-0.625-11.246-2.052-16.511-4.641c-3.036-1.517-3.927-1.071-4.909,2.232
				c-0.803,2.855-1.606,5.711-2.321,8.567c-0.981,3.837-0.625,4.82,3.124,6.515c4.731,2.231,9.729,3.302,14.815,4.016
				c4.016,0.536,4.104,0.714,4.283,4.909c0.09,1.875,0.09,3.749,0.179,5.623c0.089,2.41,1.25,3.748,3.659,3.748
				c2.767,0,5.533,0,8.3-0.178c2.231-0.089,3.392-1.338,3.392-3.66c0-2.587,0.089-5.175-0.089-7.675
				c-0.179-2.588,0.981-3.927,3.48-4.641c5.801-1.695,10.62-4.819,14.369-9.549c10.352-12.941,6.068-31.683-9.015-39.715
				c-4.73-2.498-9.728-4.373-14.726-6.425c-2.856-1.16-5.623-2.499-8.032-4.374c-4.82-3.749-4.017-9.906,1.516-12.405
				c1.517-0.714,3.214-0.981,4.909-1.071c6.425-0.446,12.583,0.625,18.474,3.391c2.945,1.338,3.926,0.893,4.819-2.142
				c0.981-3.212,1.785-6.514,2.678-9.728c0.624-2.141-0.179-3.569-2.231-4.461c-3.748-1.606-7.675-2.767-11.691-3.303
				c-5.266-0.713-5.266-0.803-5.355-6.068c-0.178-7.497-0.178-7.497-7.585-7.408c-1.072,0-2.143,0-3.303,0.089
				c-3.481,0.178-4.105,0.804-4.105,4.284c0,1.606,0,3.123,0.089,4.729C189.231,168.407,189.231,168.318,184.77,170.014z"/>
		</g>
		<g>
			<path fill="#466BD9" d="M353.713,359.662c2.053-4.283,4.194-8.566,6.336-12.852H163.261c-6.515,0-11.959,5.355-11.959,11.959
				c0,6.516,5.355,11.959,11.959,11.959h185.275C350.145,367.07,351.928,363.41,353.713,359.662z"/>
		</g>
		<g>
			<path fill="#466BD9" d="M151.302,406.338L151.302,406.338c0,6.516,5.355,11.959,11.959,11.959h166.178
				c2.587-8.031,5.443-15.885,8.656-23.828H163.261C156.657,394.469,151.302,399.824,151.302,406.338z"/>
		</g>
		<g>
			<path fill="#466BD9" d="M530.51,228.023L530.51,228.023l-6.782-3.926l-10.979-6.337c1.785-4.104,3.392-8.299,4.643-12.583
				c0.358-1.427,0.801-2.767,1.07-4.195c1.963-9.728-1.429-16.421-11.155-22.222c-8.39-4.998-14.995-4.462-22.579,1.785
				c-5.176,4.283-9.371,9.46-13.299,14.815c-14.277,19.456-26.417,40.339-39.091,60.777l-15.351,25.523l0,0
				c-16.599,28.113-32.216,56.762-46.406,86.215c-9.371,19.365-18.206,38.998-24.455,59.703c-0.624,2.857-1.426,5.801-1.694,8.746
				c-0.357,3.393-1.607,7.588,2.053,9.729c3.569,2.053,6.693-0.803,9.549-2.855c7.676-5.533,14.102-12.406,20.26-19.457
				c30.075-34.357,55.689-71.842,80.322-110.217l0,0l19.367-31.059c8.298-14.19,16.955-28.113,25.166-42.303
				c1.518-2.678,3.122-5.443,4.643-8.121l10.172,5.89l-49.621,85.41c-3.747,6.516-0.445,15.17,7.586,17.045
				c0.715,0.18,1.519-0.178,1.874-0.803l57.922-99.778C535.955,235.61,534.616,230.433,530.51,228.023z"/>
		</g>
	</g>
</g>
</svg>
