<?xml version="1.0" encoding="utf-8"?>
<!-- Generator: Adobe Illustrator 16.0.0, SVG Export Plug-In . SVG Version: 6.00 Build 0)  -->
<!DOCTYPE svg PUBLIC "-//W3C//DTD SVG 1.1//EN" "http://www.w3.org/Graphics/SVG/1.1/DTD/svg11.dtd">
<svg version="1.1" id="Layer_1" xmlns="http://www.w3.org/2000/svg" xmlns:xlink="http://www.w3.org/1999/xlink" x="0px" y="0px"
	 width="612px" height="570px" viewBox="0 0 612 570" enable-background="new 0 0 612 570" xml:space="preserve">
<g id="Layer_1_1_">
</g>
<g id="Layer_3" display="none">
</g>
<g id="Layer_5" display="none">
</g>
<g>
	<path fill="#466BD9" d="M137.655,407.001h326.677c12.915,0,23.335-10.451,23.335-23.336V150.322
		c0-17.182-13.919-31.108-31.093-31.108H145.428c-17.174,0-31.093,13.927-31.093,31.108v233.344
		C114.335,396.55,124.785,407.001,137.655,407.001z M153.277,158.156h295.447v209.902H153.277V158.156z"/>
	<path fill="#466BD9" d="M502.362,421.3H99.64c-4.305,0-7.789,3.483-7.789,7.789c0,7.575,0,19.318,0,28.826
		c0,15.41,15.653,27.883,34.942,27.883h348.415c19.289,0,34.941-12.473,34.941-27.883v-28.826
		C510.15,424.783,506.666,421.3,502.362,421.3z M349.588,461.338h-97.175c-4.305,0-7.788-3.483-7.788-7.788
		c0-4.306,3.483-7.789,7.788-7.789h97.175c4.305,0,7.788,3.483,7.788,7.789C357.376,457.855,353.893,461.338,349.588,461.338z"/>
</g>
<path fill="#466BD9" d="M240.925,318.7v19.622c0,0.953-0.282,1.736-0.845,2.351c-0.563,0.613-1.283,0.92-2.159,0.92h-18.023
	c-0.875,0-1.595-0.307-2.159-0.92c-0.563-0.614-0.845-1.397-0.845-2.351V318.7c0-0.954,0.282-1.737,0.845-2.35
	c0.563-0.613,1.283-0.92,2.159-0.92h18.023c0.876,0,1.596,0.307,2.159,0.92C240.643,316.963,240.925,317.746,240.925,318.7z
	 M276.97,305.619v32.703c0,0.953-0.282,1.736-0.845,2.351c-0.563,0.613-1.283,0.92-2.159,0.92h-18.023
	c-0.876,0-1.596-0.307-2.159-0.92c-0.563-0.614-0.845-1.397-0.845-2.351v-32.703c0-0.953,0.282-1.737,0.845-2.351
	c0.563-0.613,1.283-0.92,2.159-0.92h18.023c0.875,0,1.596,0.307,2.159,0.92S276.97,304.666,276.97,305.619z M313.017,279.458v58.865
	c0,0.953-0.282,1.736-0.846,2.351c-0.563,0.613-1.282,0.92-2.158,0.92H291.99c-0.876,0-1.596-0.307-2.16-0.92
	c-0.562-0.614-0.844-1.397-0.844-2.351v-58.865c0-0.954,0.282-1.737,0.844-2.351c0.564-0.613,1.283-0.919,2.16-0.919h18.023
	c0.876,0,1.595,0.307,2.158,0.919C312.735,277.72,313.017,278.504,313.017,279.458z M349.062,240.215v98.108
	c0,0.953-0.282,1.736-0.846,2.351c-0.563,0.613-1.282,0.92-2.159,0.92h-18.021c-0.877,0-1.597-0.307-2.159-0.92
	c-0.563-0.614-0.846-1.397-0.846-2.351v-98.108c0-0.953,0.283-1.737,0.846-2.35c0.563-0.613,1.282-0.92,2.159-0.92h18.021
	c0.877,0,1.597,0.307,2.159,0.92C348.78,238.477,349.062,239.261,349.062,240.215z M385.107,187.891v150.432
	c0,0.953-0.281,1.736-0.844,2.351c-0.564,0.613-1.283,0.92-2.16,0.92H364.08c-0.876,0-1.596-0.307-2.159-0.92
	c-0.563-0.614-0.845-1.397-0.845-2.351V187.891c0-0.954,0.281-1.737,0.845-2.351s1.283-0.92,2.159-0.92h18.022
	c0.877,0,1.596,0.307,2.16,0.92C384.825,186.154,385.107,186.937,385.107,187.891z"/>
</svg>
