<?xml version="1.0" encoding="utf-8"?>
<!-- Generator: Adobe Illustrator 16.0.0, SVG Export Plug-In . SVG Version: 6.00 Build 0)  -->
<!DOCTYPE svg PUBLIC "-//W3C//DTD SVG 1.1//EN" "http://www.w3.org/Graphics/SVG/1.1/DTD/svg11.dtd">
<svg version="1.1" id="Layer_1" xmlns="http://www.w3.org/2000/svg" xmlns:xlink="http://www.w3.org/1999/xlink" x="0px" y="0px"
	 width="612px" height="570px" viewBox="0 0 612 570" enable-background="new 0 0 612 570" xml:space="preserve">
<g id="Layer_1_1_">
</g>
<g id="Layer_3" display="none">
</g>
<g id="Layer_5" display="none">
</g>
<g>
	<g>
		<g>
			<path fill="#466BD9" d="M474.344,525.029H189.931c-6.544,0-11.326-7.802-11.326-13.844V270.82c0-2.013,1.762-2.517,3.775-2.517
				h299.515c2.012,0,3.775,0.504,3.775,2.517v240.365C485.67,517.228,480.888,525.029,474.344,525.029z M186.155,275.854v235.331
				c0,2.268,2.013,6.295,3.775,6.295h284.413c1.762,0,3.774-4.027,3.774-6.295V275.854H186.155z"/>
		</g>
	</g>
	<g>
		<g>
			<path fill="#466BD9" d="M186.155,382.823c0,2.012-1.762,3.775-3.775,3.775H96.805c-2.013,0-3.775-1.764-3.775-3.775V83.31
				c0-2.013,1.762-3.775,3.775-3.775h85.575c2.014,0,3.775,1.763,3.775,3.775V382.823z M100.58,379.049h78.025V87.084H100.58
				V379.049z"/>
		</g>
	</g>
	<g>
		<g>
			<path fill="#466BD9" d="M403.869,368.979H257.888c-11.83,0-21.393-9.563-21.393-21.393c0-11.831,9.563-21.395,21.393-21.395
				h145.981c11.831,0,21.394,9.563,21.394,21.395C425.263,359.416,415.7,368.979,403.869,368.979z M257.888,333.743
				c-7.55,0-13.843,6.292-13.843,13.844c0,7.549,6.293,13.844,13.843,13.844h145.981c7.551,0,13.843-6.295,13.843-13.844
				c0-7.552-6.292-13.844-13.843-13.844H257.888z"/>
		</g>
	</g>
	<g>
		<g>
			<path fill="#466BD9" d="M213.842,273.337h-7.551v-123.33c0-2.013,1.762-2.517,3.776-2.517h100.676
				c2.015,0,3.776,0.504,3.776,2.517v52.855h54.112c2.016,0,3.776,0.503,3.776,2.518v65.439h-7.55v-60.406h-54.115
				c-2.012,0-3.774-3.021-3.774-5.034v-50.339h-93.126V273.337z"/>
		</g>
	</g>
	<g>
		<g>
			<rect x="364.857" y="328.709" fill="#466BD9" width="7.55" height="37.755"/>
		</g>
	</g>
	<g>
		<g>
			
				<rect x="299.655" y="173.937" transform="matrix(-0.7206 -0.6933 0.6933 -0.7206 461.0212 541.1926)" fill="#466BD9" width="79.783" height="7.552"/>
		</g>
	</g>
	<g>
		<g>
			<path fill="#466BD9" d="M452.949,273.337h-7.55v-93.126h-54.115c-2.012,0-3.774-3.021-3.774-5.034v-50.338h-93.126v25.169h-7.551
				v-30.203c0-2.013,1.762-2.517,3.775-2.517h100.677c2.014,0,3.776,0.504,3.776,2.517v52.855h54.112
				c2.016,0,3.776,0.504,3.776,2.517V273.337z"/>
		</g>
	</g>
	<g>
		<g>
			<path fill="#466BD9" d="M449.173,180.211h-57.889c-2.012,0-3.774-3.021-3.774-5.034v-55.372c0-1.511,1.007-2.769,2.265-3.523
				c1.51-0.504,3.02-0.253,4.027,0.754l57.89,55.373c1.007,1.006,1.509,3.272,1.007,4.782
				C452.195,178.7,450.684,180.211,449.173,180.211z M395.061,172.66h44.801l-44.801-44.046V172.66z"/>
		</g>
	</g>
</g>
<g>
	<g>
		<g>
			<path fill="#466BD9" d="M478.344,522.029H193.931c-6.544,0-11.326-7.802-11.326-13.844V267.82c0-2.013,1.762-2.517,3.775-2.517
				h299.515c2.012,0,3.775,0.504,3.775,2.517v240.365C489.67,514.228,484.888,522.029,478.344,522.029z M190.155,272.854v235.331
				c0,2.268,2.013,6.295,3.775,6.295h284.413c1.762,0,3.774-4.027,3.774-6.295V272.854H190.155z"/>
		</g>
	</g>
	<g>
		<g>
			<path fill="#466BD9" d="M190.155,379.823c0,2.012-1.762,3.775-3.775,3.775h-85.575c-2.013,0-3.775-1.764-3.775-3.775V80.31
				c0-2.013,1.762-3.775,3.775-3.775h85.575c2.014,0,3.775,1.763,3.775,3.775V379.823z M104.58,376.049h78.025V84.084H104.58
				V376.049z"/>
		</g>
	</g>
	<g>
		<g>
			<path fill="#466BD9" d="M407.869,365.979H261.888c-11.83,0-21.393-9.563-21.393-21.393c0-11.831,9.563-21.395,21.393-21.395
				h145.981c11.831,0,21.394,9.563,21.394,21.395C429.263,356.416,419.7,365.979,407.869,365.979z M261.888,330.743
				c-7.55,0-13.843,6.292-13.843,13.844c0,7.549,6.293,13.844,13.843,13.844h145.981c7.551,0,13.843-6.295,13.843-13.844
				c0-7.552-6.292-13.844-13.843-13.844H261.888z"/>
		</g>
	</g>
	<g>
		<g>
			<path fill="#466BD9" d="M217.842,270.337h-7.551v-123.33c0-2.013,1.762-2.517,3.776-2.517h100.676
				c2.015,0,3.776,0.504,3.776,2.517v52.855h54.112c2.016,0,3.776,0.503,3.776,2.518v65.439h-7.55v-60.406h-54.115
				c-2.012,0-3.774-3.021-3.774-5.034v-50.339h-93.126V270.337z"/>
		</g>
	</g>
	<g>
		<g>
			<rect x="368.857" y="325.709" fill="#466BD9" width="7.55" height="37.755"/>
		</g>
	</g>
	<g>
		<g>
			
				<rect x="303.655" y="170.937" transform="matrix(-0.7206 -0.6933 0.6933 -0.7206 469.9837 538.804)" fill="#466BD9" width="79.783" height="7.552"/>
		</g>
	</g>
	<g>
		<g>
			<path fill="#466BD9" d="M456.949,270.337h-7.55v-93.126h-54.115c-2.012,0-3.774-3.021-3.774-5.034v-50.338h-93.126v25.169h-7.551
				v-30.203c0-2.013,1.762-2.517,3.775-2.517h100.677c2.014,0,3.776,0.504,3.776,2.517v52.855h54.112
				c2.016,0,3.776,0.504,3.776,2.517V270.337z"/>
		</g>
	</g>
	<g>
		<g>
			<path fill="#466BD9" d="M453.173,177.211h-57.889c-2.012,0-3.774-3.021-3.774-5.034v-55.372c0-1.511,1.007-2.769,2.265-3.523
				c1.51-0.504,3.02-0.253,4.027,0.754l57.89,55.373c1.007,1.006,1.509,3.272,1.007,4.782
				C456.195,175.7,454.684,177.211,453.173,177.211z M399.061,169.66h44.801l-44.801-44.046V169.66z"/>
		</g>
	</g>
</g>
<g>
	<g>
		<g>
			<path fill="#466BD9" d="M484.344,520.029H199.931c-6.544,0-11.326-7.802-11.326-13.844V265.82c0-2.013,1.762-2.517,3.775-2.517
				h299.515c2.012,0,3.775,0.504,3.775,2.517v240.365C495.67,512.228,490.888,520.029,484.344,520.029z M196.155,270.854v235.331
				c0,2.268,2.013,6.295,3.775,6.295h284.413c1.762,0,3.774-4.027,3.774-6.295V270.854H196.155z"/>
		</g>
	</g>
	<g>
		<g>
			<path fill="#466BD9" d="M196.155,377.823c0,2.012-1.762,3.775-3.775,3.775h-85.575c-2.013,0-3.775-1.764-3.775-3.775V78.31
				c0-2.013,1.762-3.775,3.775-3.775h85.575c2.014,0,3.775,1.763,3.775,3.775V377.823z M110.58,374.049h78.025V82.084H110.58
				V374.049z"/>
		</g>
	</g>
	<g>
		<g>
			<path fill="#466BD9" d="M413.869,363.979H267.888c-11.83,0-21.393-9.563-21.393-21.393c0-11.831,9.563-21.395,21.393-21.395
				h145.981c11.831,0,21.394,9.563,21.394,21.395C435.263,354.416,425.7,363.979,413.869,363.979z M267.888,328.743
				c-7.55,0-13.843,6.292-13.843,13.844c0,7.549,6.293,13.844,13.843,13.844h145.981c7.551,0,13.843-6.295,13.843-13.844
				c0-7.552-6.292-13.844-13.843-13.844H267.888z"/>
		</g>
	</g>
	<g>
		<g>
			<path fill="#466BD9" d="M223.842,268.337h-7.551v-123.33c0-2.013,1.762-2.517,3.776-2.517h100.676
				c2.015,0,3.776,0.504,3.776,2.517v52.855h54.112c2.016,0,3.776,0.503,3.776,2.518v65.439h-7.55v-60.406h-54.115
				c-2.012,0-3.774-3.021-3.774-5.034v-50.339h-93.126V268.337z"/>
		</g>
	</g>
	<g>
		<g>
			<rect x="374.857" y="323.709" fill="#466BD9" width="7.55" height="37.755"/>
		</g>
	</g>
	<g>
		<g>
			
				<rect x="309.655" y="168.937" transform="matrix(-0.7206 -0.6933 0.6933 -0.7206 481.6941 539.5226)" fill="#466BD9" width="79.783" height="7.552"/>
		</g>
	</g>
	<g>
		<g>
			<path fill="#466BD9" d="M462.949,268.337h-7.55v-93.126h-54.115c-2.012,0-3.774-3.021-3.774-5.034v-50.338h-93.126v25.169h-7.551
				v-30.203c0-2.013,1.762-2.517,3.775-2.517h100.677c2.014,0,3.776,0.504,3.776,2.517v52.855h54.112
				c2.016,0,3.776,0.504,3.776,2.517V268.337z"/>
		</g>
	</g>
	<g>
		<g>
			<path fill="#466BD9" d="M459.173,175.211h-57.889c-2.012,0-3.774-3.021-3.774-5.034v-55.372c0-1.511,1.007-2.769,2.265-3.523
				c1.51-0.504,3.02-0.253,4.027,0.754l57.89,55.373c1.007,1.006,1.509,3.272,1.007,4.782
				C462.195,173.7,460.684,175.211,459.173,175.211z M405.061,167.66h44.801l-44.801-44.046V167.66z"/>
		</g>
	</g>
</g>
<g>
	<g>
		<g>
			<path fill="#466BD9" d="M472.344,519.029H187.931c-6.544,0-11.326-7.802-11.326-13.844V264.82c0-2.013,1.762-2.517,3.775-2.517
				h299.515c2.012,0,3.775,0.504,3.775,2.517v240.365C483.67,511.228,478.888,519.029,472.344,519.029z M184.155,269.854v235.331
				c0,2.268,2.013,6.295,3.775,6.295h284.413c1.762,0,3.774-4.027,3.774-6.295V269.854H184.155z"/>
		</g>
	</g>
	<g>
		<g>
			<path fill="#466BD9" d="M184.155,376.823c0,2.012-1.762,3.775-3.775,3.775H94.805c-2.013,0-3.775-1.764-3.775-3.775V77.31
				c0-2.013,1.762-3.775,3.775-3.775h85.575c2.014,0,3.775,1.763,3.775,3.775V376.823z M98.58,373.049h78.025V81.084H98.58V373.049z
				"/>
		</g>
	</g>
	<g>
		<g>
			<path fill="#466BD9" d="M401.869,362.979H255.888c-11.83,0-21.393-9.563-21.393-21.393c0-11.831,9.563-21.395,21.393-21.395
				h145.981c11.831,0,21.394,9.563,21.394,21.395C423.263,353.416,413.7,362.979,401.869,362.979z M255.888,327.743
				c-7.55,0-13.843,6.292-13.843,13.844c0,7.549,6.293,13.844,13.843,13.844h145.981c7.551,0,13.843-6.295,13.843-13.844
				c0-7.552-6.292-13.844-13.843-13.844H255.888z"/>
		</g>
	</g>
	<g>
		<g>
			<path fill="#466BD9" d="M211.842,267.337h-7.551v-123.33c0-2.013,1.762-2.517,3.776-2.517h100.676
				c2.015,0,3.776,0.504,3.776,2.517v52.855h54.112c2.016,0,3.776,0.503,3.776,2.518v65.439h-7.55v-60.406h-54.115
				c-2.012,0-3.774-3.021-3.774-5.034v-50.339h-93.126V267.337z"/>
		</g>
	</g>
	<g>
		<g>
			<rect x="362.857" y="322.709" fill="#466BD9" width="7.55" height="37.755"/>
		</g>
	</g>
	<g>
		<g>
			
				<rect x="297.655" y="167.937" transform="matrix(-0.7206 -0.6933 0.6933 -0.7206 461.7399 529.4822)" fill="#466BD9" width="79.783" height="7.552"/>
		</g>
	</g>
	<g>
		<g>
			<path fill="#466BD9" d="M450.949,267.337h-7.55v-93.126h-54.115c-2.012,0-3.774-3.021-3.774-5.034v-50.338h-93.126v25.169h-7.551
				v-30.203c0-2.013,1.762-2.517,3.775-2.517h100.677c2.014,0,3.776,0.504,3.776,2.517v52.855h54.112
				c2.016,0,3.776,0.504,3.776,2.517V267.337z"/>
		</g>
	</g>
	<g>
		<g>
			<path fill="#466BD9" d="M447.173,174.211h-57.889c-2.012,0-3.774-3.021-3.774-5.034v-55.372c0-1.511,1.007-2.769,2.265-3.523
				c1.51-0.504,3.02-0.253,4.027,0.754l57.89,55.373c1.007,1.006,1.509,3.272,1.007,4.782
				C450.195,172.7,448.684,174.211,447.173,174.211z M393.061,166.66h44.801l-44.801-44.046V166.66z"/>
		</g>
	</g>
</g>
</svg>
