<?xml version="1.0" encoding="utf-8"?>
<!-- Generator: Adobe Illustrator 16.0.0, SVG Export Plug-In . SVG Version: 6.00 Build 0)  -->
<!DOCTYPE svg PUBLIC "-//W3C//DTD SVG 1.1//EN" "http://www.w3.org/Graphics/SVG/1.1/DTD/svg11.dtd">
<svg version="1.1" id="Layer_1" xmlns="http://www.w3.org/2000/svg" xmlns:xlink="http://www.w3.org/1999/xlink" x="0px" y="0px"
	 width="612px" height="570px" viewBox="0 0 612 570" enable-background="new 0 0 612 570" xml:space="preserve">
<g id="Layer_1_1_">
</g>
<g id="Layer_3" display="none">
</g>
<g id="Layer_5" display="none">
</g>
<path fill="#466BD9" d="M494.35,415.831L494.35,415.831c0,23.317-18.896,42.213-42.211,42.213l0,0H148.212l0,0
	c-23.32,0-42.212-18.896-42.212-42.213V171.002c0-18.649,15.121-33.769,33.77-33.769l0,0h170.291l68.37-24.771
	c4.338-1.579,9.137,0.66,10.711,4.976l7.197,19.795h30.472c18.649,0,33.77,15.12,33.77,33.769v16.886l0,0
	c18.649,0,33.77,15.12,33.77,33.768V415.831z M139.77,154.118L139.77,154.118c-9.32,0-16.886,7.565-16.886,16.884
	c0,9.32,7.565,16.886,16.886,16.886h29.083l0,0h1.594c0.112-0.041,0.178-0.136,0.289-0.177l92.712-33.593H139.77z M385.258,155.647
	l-8.969-24.688l0,0l0,0l-17.321,6.274h0.024l-46.55,16.884h-0.083l-93.2,33.77h177.814L385.258,155.647z M443.696,171.002
	c0-9.319-7.569-16.884-16.886-16.884h-24.338l12.269,33.77h28.955l0,0V171.002z M460.58,204.772H139.77l0,0
	c-6.179,0-11.905-1.782-16.886-4.688v215.746c0,13.992,11.35,25.327,25.329,25.327h303.926c13.99,0,25.327-11.335,25.327-25.327
	v-59.095h-33.77c-18.649,0-33.771-15.121-33.771-33.771c0-18.648,15.121-33.77,33.771-33.77h33.77v-67.54
	C477.466,212.337,469.897,204.772,460.58,204.772z M477.466,339.851v-33.769h-33.77c-9.317,0-16.886,7.568-16.886,16.884
	c0,9.316,7.568,16.885,16.886,16.885H477.466z M443.696,314.523h16.884v16.886h-16.884V314.523z"/>
</svg>
