<?xml version="1.0" encoding="utf-8"?>
<!-- Generator: Adobe Illustrator 16.0.0, SVG Export Plug-In . SVG Version: 6.00 Build 0)  -->
<!DOCTYPE svg PUBLIC "-//W3C//DTD SVG 1.1//EN" "http://www.w3.org/Graphics/SVG/1.1/DTD/svg11.dtd">
<svg version="1.1" id="Layer_1" xmlns="http://www.w3.org/2000/svg" xmlns:xlink="http://www.w3.org/1999/xlink" x="0px" y="0px"
	 width="612px" height="570px" viewBox="0 0 612 570" enable-background="new 0 0 612 570" xml:space="preserve">
<g id="Layer_1_1_">
</g>
<g id="Layer_3" display="none">
</g>
<g id="Layer_5" display="none">
</g>
<path fill="#466BD9" d="M499.47,448.9L499.47,448.9c0,25.479-20.648,46.126-46.124,46.126l0,0h-332.1l0,0
	c-25.482,0-46.125-20.646-46.125-46.126V181.376c0-20.377,16.521-36.899,36.898-36.899l0,0h186.078l74.707-27.065
	c4.74-1.728,9.982,0.721,11.704,5.438l7.862,21.63h33.299c20.378,0,36.897,16.521,36.897,36.899v18.451l0,0
	c20.379,0,36.9,16.521,36.9,36.896V448.9H499.47z M112.02,162.927L112.02,162.927c-10.184,0-18.451,8.267-18.451,18.45
	c0,10.183,8.269,18.451,18.451,18.451h31.78l0,0h1.742c0.123-0.045,0.193-0.149,0.314-0.194l101.309-36.707H112.02z
	 M380.266,164.598l-9.801-26.976l0,0l0,0l-18.929,6.854h0.026l-50.865,18.449h-0.09l-101.84,36.901h194.298L380.266,164.598z
	 M444.119,181.376c0-10.185-8.271-18.45-18.449-18.45h-26.596l13.405,36.901h31.64l0,0V181.376L444.119,181.376z M462.569,218.277
	H112.02l0,0c-6.751,0-13.008-1.945-18.451-5.122V448.9c0,15.289,12.402,27.676,27.678,27.676h332.1
	c15.287,0,27.675-12.387,27.675-27.676v-64.57h-36.901c-20.379,0-36.899-16.523-36.899-36.901c0-20.377,16.521-36.899,36.899-36.899
	h36.899v-73.801C481.021,226.543,472.75,218.277,462.569,218.277z M481.021,365.877v-36.899h-36.899
	c-10.182,0-18.449,8.271-18.449,18.449c0,10.18,8.27,18.45,18.449,18.45H481.021L481.021,365.877z M444.119,338.202h18.448v18.448
	h-18.448V338.202z"/>
<path fill="#466BD9" d="M258.3,256.765c-52.565-0.002-95.179,42.607-95.182,95.172c-0.004,52.565,42.605,95.18,95.172,95.183
	c52.563,0.003,95.179-42.605,95.182-95.173c0-0.001,0-0.003,0-0.005C353.472,299.379,310.863,256.767,258.3,256.765z
	 M250.847,345.202h14.633c13.656-0.014,24.737,11.047,24.749,24.701c0.016,13.656-11.047,24.736-24.702,24.75l0,0v12.182
	c0.107,4.416-3.384,8.082-7.799,8.188c-4.413,0.106-8.079-3.385-8.187-7.799c-0.003-0.129-0.003-0.26,0-0.391v-12.179H232.86
	c-4.416,0-7.993-3.579-7.993-7.994c0-4.416,3.577-7.994,7.993-7.994h32.62c4.824,0.055,8.781-3.813,8.837-8.637
	c0.058-4.823-3.81-8.779-8.634-8.838c-0.066,0-0.136,0-0.203,0h-14.633c-14.321,0.032-25.958-11.553-25.989-25.875
	c-0.028-13.856,10.84-25.292,24.685-25.961v-12.311c-0.107-4.414,3.384-8.08,7.798-8.188c4.414-0.106,8.08,3.386,8.188,7.799
	c0.003,0.131,0.003,0.262,0,0.391v12.176h18.215c4.413,0.002,7.991,3.584,7.989,8c-0.002,4.413-3.58,7.989-7.989,7.991h-32.895
	c-5.518-0.003-9.995,4.468-9.998,9.987c-0.003,5.519,4.469,9.993,9.988,9.997C250.84,345.202,250.844,345.202,250.847,345.202
	L250.847,345.202z"/>
<path fill="#466BD9" d="M502.916,438.156l-7.216-1.164c-0.862-2.768-1.979-5.46-3.332-8.034l4.281-5.929
	c1.373-1.901,1.167-4.486-0.492-6.146l-12.101-12.102c-1.659-1.658-4.244-1.866-6.146-0.492l-5.93,4.281
	c-2.574-1.352-5.266-2.469-8.034-3.331l-1.164-7.217c-0.374-2.314-2.349-3.998-4.692-3.998h-17.113c-2.346,0-4.32,1.682-4.693,3.998
	l-1.164,7.217c-2.769,0.863-5.461,1.979-8.033,3.331l-5.93-4.281c-1.901-1.374-4.486-1.166-6.146,0.492l-12.104,12.102
	c-1.659,1.659-1.864,4.244-0.491,6.146l4.282,5.931c-1.353,2.573-2.469,5.266-3.333,8.032l-7.216,1.164
	c-2.315,0.373-3.997,2.349-3.997,4.694v17.113c0,2.347,1.682,4.321,3.998,4.695l7.217,1.164c0.863,2.769,1.979,5.46,3.331,8.033
	l-4.282,5.93c-1.373,1.902-1.166,4.487,0.493,6.146l12.102,12.102c1.659,1.659,4.244,1.867,6.146,0.493l5.93-4.283
	c2.572,1.353,5.266,2.469,8.033,3.332l1.164,7.217c0.373,2.316,2.349,3.997,4.693,3.997h17.114c2.346,0,4.318-1.681,4.692-3.997
	l1.164-7.217c2.77-0.863,5.46-1.979,8.033-3.332l5.93,4.283c1.903,1.373,4.487,1.165,6.148-0.493l12.1-12.102
	c1.659-1.659,1.866-4.243,0.493-6.146l-4.281-5.93c1.351-2.574,2.468-5.266,3.332-8.033l7.216-1.164
	c2.316-0.373,3.997-2.35,3.997-4.695V442.85C506.914,440.505,505.234,438.53,502.916,438.156z M449.531,472.242
	c-11.486,0-20.835-9.348-20.835-20.836c0-11.487,9.348-20.836,20.835-20.836c11.488,0,20.837,9.349,20.837,20.836
	C470.368,462.895,461.022,472.242,449.531,472.242z"/>
</svg>
