<?xml version="1.0" encoding="utf-8"?>
<!-- Generator: Adobe Illustrator 16.0.0, SVG Export Plug-In . SVG Version: 6.00 Build 0)  -->
<!DOCTYPE svg PUBLIC "-//W3C//DTD SVG 1.1//EN" "http://www.w3.org/Graphics/SVG/1.1/DTD/svg11.dtd">
<svg version="1.1" id="Layer_1" xmlns="http://www.w3.org/2000/svg" xmlns:xlink="http://www.w3.org/1999/xlink" x="0px" y="0px"
	 width="612px" height="570px" viewBox="0 0 612 570" enable-background="new 0 0 612 570" xml:space="preserve">
<g id="Layer_1_1_">
</g>
<g id="Layer_3" display="none">
</g>
<g id="Layer_5" display="none">
</g>
<path fill="#466BD9" d="M499.47,448.9L499.47,448.9c0,25.479-20.648,46.126-46.124,46.126l0,0h-332.1l0,0
	c-25.482,0-46.125-20.646-46.125-46.126V181.376c0-20.377,16.523-36.899,36.9-36.899l0,0h186.078l74.707-27.067
	c4.74-1.726,9.984,0.721,11.704,5.438l7.864,21.63h33.297c20.378,0,36.899,16.521,36.899,36.899v18.451l0,0
	c20.379,0,36.9,16.521,36.9,36.898V448.9z M112.02,162.927L112.02,162.927c-10.184,0-18.451,8.267-18.451,18.45
	c0,10.184,8.267,18.451,18.451,18.451h31.78l0,0h1.742c0.123-0.045,0.195-0.149,0.316-0.194l101.307-36.707H112.02z
	 M380.266,164.598l-9.801-26.976l0,0l0,0l-18.927,6.855h0.026l-50.865,18.449h-0.09l-101.84,36.901h194.298L380.266,164.598z
	 M444.121,181.376c0-10.183-8.271-18.45-18.451-18.45h-26.594l13.405,36.901h31.64l0,0V181.376z M462.569,218.277H112.02l0,0
	c-6.751,0-13.008-1.947-18.451-5.122V448.9c0,15.289,12.402,27.676,27.676,27.676h332.1c15.287,0,27.675-12.387,27.675-27.676
	v-64.572h-36.899c-20.379,0-36.901-16.523-36.901-36.901c0-20.377,16.522-36.899,36.901-36.899h36.899v-73.801
	C481.021,226.543,472.751,218.277,462.569,218.277z M481.021,365.877v-36.899h-36.899c-10.182,0-18.451,8.271-18.451,18.449
	c0,10.18,8.27,18.45,18.451,18.45H481.021z M444.121,338.202h18.448v18.45h-18.448V338.202z"/>
<path fill="#466BD9" d="M258.3,256.765c-52.565-0.002-95.179,42.607-95.182,95.172c-0.002,52.565,42.607,95.18,95.172,95.183
	c52.565,0.003,95.179-42.607,95.182-95.173c0-0.001,0-0.003,0-0.005C353.472,299.379,310.863,256.767,258.3,256.765z
	 M250.847,345.202h14.633c13.656-0.012,24.737,11.047,24.749,24.703c0.014,13.656-11.047,24.736-24.702,24.75l0,0v12.18
	c0.107,4.416-3.384,8.082-7.799,8.189c-4.413,0.106-8.079-3.385-8.187-7.799c-0.003-0.129-0.003-0.26,0-0.391v-12.177h-16.68
	c-4.416,0-7.995-3.58-7.995-7.996s3.579-7.994,7.995-7.994h32.62c4.824,0.055,8.781-3.811,8.837-8.635
	c0.056-4.825-3.81-8.781-8.634-8.838c-0.068,0-0.136,0-0.203,0h-14.633c-14.321,0.032-25.958-11.553-25.989-25.875
	c-0.03-13.858,10.84-25.292,24.683-25.961v-12.311c-0.107-4.414,3.384-8.08,7.798-8.188s8.08,3.384,8.188,7.799
	c0.003,0.129,0.003,0.26,0,0.389v12.176h18.213c4.415,0.002,7.993,3.584,7.991,8c-0.002,4.413-3.58,7.989-7.991,7.991h-32.893
	c-5.518-0.003-9.995,4.468-9.998,9.987c-0.003,5.519,4.469,9.995,9.988,9.999C250.84,345.202,250.844,345.202,250.847,345.202
	L250.847,345.202z"/>
</svg>
