<?xml version="1.0" encoding="utf-8"?>
<!-- Generator: Adobe Illustrator 16.0.0, SVG Export Plug-In . SVG Version: 6.00 Build 0)  -->
<!DOCTYPE svg PUBLIC "-//W3C//DTD SVG 1.1//EN" "http://www.w3.org/Graphics/SVG/1.1/DTD/svg11.dtd">
<svg version="1.1" id="Layer_1" xmlns="http://www.w3.org/2000/svg" xmlns:xlink="http://www.w3.org/1999/xlink" x="0px" y="0px"
	 width="612px" height="570px" viewBox="0 0 612 570" enable-background="new 0 0 612 570" xml:space="preserve">
<g id="Layer_1_1_">
</g>
<g id="Layer_3" display="none">
</g>
<g id="Layer_5" display="none">
</g>
<path fill="#466BD9" d="M155.81,514.573h272.612c25.092,0,45.437-20.345,45.437-45.436V105.654
	c0-25.091-20.345-45.435-45.437-45.435H155.81c-25.092,0-45.435,20.344-45.435,45.435v363.483
	C110.375,494.228,130.719,514.573,155.81,514.573z M223.964,446.419h-45.435v-45.436h45.435V446.419z M223.964,355.549h-45.435
	v-45.436h45.435V355.549z M223.964,264.677h-45.435v-45.435h45.435V264.677z M314.834,446.419h-45.436v-45.436h45.436V446.419z
	 M314.834,355.549h-45.436v-45.436h45.436V355.549z M314.834,264.677h-45.436v-45.435h45.436V264.677z M405.705,446.419H360.27
	V310.114h45.436V446.419z M405.705,264.677H360.27v-45.435h45.436V264.677z M155.81,105.654h272.612v68.153H155.81V105.654z"/>
</svg>
