<?xml version="1.0" encoding="utf-8"?>
<!-- Generator: Adobe Illustrator 16.0.0, SVG Export Plug-In . SVG Version: 6.00 Build 0)  -->
<!DOCTYPE svg PUBLIC "-//W3C//DTD SVG 1.1//EN" "http://www.w3.org/Graphics/SVG/1.1/DTD/svg11.dtd">
<svg version="1.1" id="Layer_1" xmlns="http://www.w3.org/2000/svg" xmlns:xlink="http://www.w3.org/1999/xlink" x="0px" y="0px"
	 width="612px" height="570px" viewBox="0 0 612 570" enable-background="new 0 0 612 570" xml:space="preserve">
<g id="Layer_1_1_">
</g>
<g id="Layer_3" display="none">
</g>
<g id="Layer_5" display="none">
</g>
<path fill="#466BD9" d="M172.568,483.822h210.33c40.997,0,61.397-20.596,61.397-61.988V121.389
	c0-41.195-20.399-62.188-61.397-62.188h-210.33c-40.798,0-61.396,20.993-61.396,62.188v300.444
	C111.171,463.226,131.769,483.822,172.568,483.822z M174.152,451.935c-20.399,0-31.095-10.892-31.095-30.698V121.982
	c0-19.607,10.695-30.896,31.292-30.896h206.965c20.598,0,31.093,11.09,31.093,30.896v299.255c0,19.807-10.495,30.698-30.896,30.698
	L174.152,451.935L174.152,451.935z M179.664,338.506h184.219c6.933,0,12.28-5.348,12.28-12.278c0-6.735-5.348-12.083-12.28-12.083
	H179.664c-7.327,0-12.477,5.348-12.477,12.083C167.187,333.158,172.337,338.506,179.664,338.506z M180.257,389.88h183.626
	c6.933,0,12.28-5.348,12.28-12.278c0-6.735-5.348-12.083-12.28-12.083H180.257c-7.328,0-12.479,5.348-12.479,12.083
	C167.779,384.532,172.929,389.88,180.257,389.88z M271.788,237.763l91.694,38.279h13.862v-94.668
	c0-17.428-9.109-26.341-26.538-26.341H202.468c-16.837,0-26.737,8.913-26.737,26.341v96.648h14.062 M269.929,232.961
	c-11.882,0-21.388-9.903-21.388-21.39c0-11.884,9.506-21.787,21.388-21.391c11.687,0.397,21.391,9.507,21.391,21.391
	C291.32,223.058,281.615,232.961,269.929,232.961z"/>
<path fill="#466BD9" d="M418.414,525.25c51.552,0,93.341-41.788,93.341-93.34c0-51.553-41.789-93.34-93.341-93.34
	c-51.554,0-93.34,41.787-93.34,93.34C325.074,483.462,366.861,525.25,418.414,525.25z"/>
<path fill="#FFFFFF" d="M370.705,390.974h20.031v13.882h-41.649v-41.71h13.883v15.726c15.531-16.284,33.229-22.606,55.536-22.606
	c42.173,0,76.361,34.188,76.361,76.363c0,42.171-34.188,76.361-76.361,76.361c-42.173,0-76.361-34.189-76.361-76.361h13.883
	c0,34.504,27.972,62.478,62.479,62.478c34.505,0,62.479-27.973,62.479-62.478c0-34.509-27.973-62.479-62.479-62.479
	C398.784,370.149,384.105,375.642,370.705,390.974z M425.448,425.683h27.767v13.886h-41.649v-48.595h13.883V425.683L425.448,425.683
	z"/>
</svg>
