<?xml version="1.0" encoding="utf-8"?>
<!-- Generator: Adobe Illustrator 16.0.0, SVG Export Plug-In . SVG Version: 6.00 Build 0)  -->
<!DOCTYPE svg PUBLIC "-//W3C//DTD SVG 1.1//EN" "http://www.w3.org/Graphics/SVG/1.1/DTD/svg11.dtd">
<svg version="1.1" id="Layer_1" xmlns="http://www.w3.org/2000/svg" xmlns:xlink="http://www.w3.org/1999/xlink" x="0px" y="0px"
	 width="612px" height="570px" viewBox="0 0 612 570" enable-background="new 0 0 612 570" xml:space="preserve">
<g id="Layer_1_1_">
</g>
<g id="Layer_3" display="none">
</g>
<g id="Layer_5" display="none">
</g>
<path fill="#466BD9" d="M185.819,456.8h185.057c36.071,0,54.02-18.121,54.02-54.541V137.916c0-36.245-17.948-54.716-54.02-54.716
	H185.819c-35.896,0-54.019,18.471-54.019,54.716v264.343C131.8,438.679,149.923,456.8,185.819,456.8z M187.213,428.745
	c-17.948,0-27.358-9.584-27.358-27.01V138.439c0-17.251,9.41-27.184,27.532-27.184h182.096c18.123,0,27.357,9.758,27.357,27.184
	v263.297c0,17.426-9.234,27.01-27.183,27.01H187.213z M192.063,328.945h162.084c6.099,0,10.804-4.705,10.804-10.803
	c0-5.926-4.705-10.631-10.804-10.631H192.063c-6.447,0-10.978,4.705-10.978,10.631C181.085,324.24,185.616,328.945,192.063,328.945z
	 M192.584,374.146h161.563c6.099,0,10.804-4.705,10.804-10.803c0-5.926-4.705-10.631-10.804-10.631H192.584
	c-6.447,0-10.979,4.705-10.979,10.631C181.606,369.441,186.137,374.146,192.584,374.146z M273.117,240.307l80.677,33.68h12.197
	v-83.293c0-15.334-8.015-23.176-23.35-23.176H212.126c-14.813,0-23.524,7.842-23.524,23.176v85.035h12.372 M266.438,239.718
	 M271.482,236.082c-10.455,0-18.819-8.713-18.819-18.819c0-10.456,8.364-19.169,18.819-18.82c10.282,0.349,18.82,8.364,18.82,18.82
	C290.302,227.369,281.764,236.082,271.482,236.082z"/>
<path fill="#466BD9" d="M402.125,493.251c45.358,0,82.125-36.767,82.125-82.125s-36.767-82.125-82.125-82.125
	c-45.359,0-82.125,36.767-82.125,82.125S356.766,493.251,402.125,493.251z"/>
<path fill="#FFFFFF" d="M360.149,375.109h17.625v12.214h-36.646v-36.699h12.215v13.836c13.665-14.327,29.237-19.89,48.863-19.89
	c37.105,0,67.186,30.081,67.186,67.187c0,37.104-30.08,67.186-67.186,67.186s-67.186-30.081-67.186-67.186h12.215
	c0,30.359,24.61,54.971,54.971,54.971c30.359,0,54.971-24.611,54.971-54.971c0-30.361-24.611-54.971-54.971-54.971
	C384.854,356.785,371.938,361.618,360.149,375.109z M408.314,405.647h24.431v12.217h-36.646v-42.755h12.215L408.314,405.647
	L408.314,405.647z"/>
</svg>
