<?xml version="1.0" encoding="utf-8"?>
<!-- Generator: Adobe Illustrator 16.0.0, SVG Export Plug-In . SVG Version: 6.00 Build 0)  -->
<!DOCTYPE svg PUBLIC "-//W3C//DTD SVG 1.1//EN" "http://www.w3.org/Graphics/SVG/1.1/DTD/svg11.dtd">
<svg version="1.1" id="Layer_1" xmlns="http://www.w3.org/2000/svg" xmlns:xlink="http://www.w3.org/1999/xlink" x="0px" y="0px"
	 width="612px" height="570px" viewBox="0 0 612 570" enable-background="new 0 0 612 570" xml:space="preserve">
<g id="Layer_1_1_">
</g>
<g id="Layer_3" display="none">
</g>
<g id="Layer_5" display="none">
</g>
<path fill="#466BD9" d="M164.461,264.844h-8.529c-7.569,0-13.646,6.077-13.646,13.646v13.646c0,7.569,6.075,13.646,12.878,13.646
	h13.646c-0.213,36.784-4.691,73.459-13.646,109.171h109.171c-8.956-35.719-13.434-72.394-13.646-109.171h12.878
	c7.57,0,13.646-6.077,13.646-13.646l1.527-13.646c0-7.569-6.075-13.646-12.879-13.646h-8.529l28.896-77.085
	c-0.154-1.553,0.102-3.855,0.102-4.708c0-7.676-6.311-13.731-13.646-13.731h-48.529v-27.292h13.646
	c7.543,0,13.647-6.104,13.647-13.647c0-7.542-6.056-13.646-13.647-13.646h-13.646l0.002-13.646c0-7.543-6.106-13.646-13.646-13.646
	c-7.54,0-13.646,6.104-13.646,13.646v13.646h-13.641c-7.543,0-13.646,6.104-13.646,13.646c0,7.543,6.098,13.647,13.646,13.647
	h13.647v27.292h-48.513c-7.25,0-13.697,5.799-13.697,13.562c0,1.646,0.299,3.296,0.904,4.871L164.461,264.844z M375.239,344.845
	l-2.815,70.108h108.147l-2.771-70.151l20.896-17.698c6.184-5.202,9.681-12.793,9.681-20.896v-49.894c0-2.9-2.218-5.118-5.886-5.118
	h-22.49c-2.879,0-5.118,2.239-5.118,5.118v22.175h-21.109v-22.175c0.786-2.9-1.433-5.118-4.331-5.118h-45.844
	c-2.879,0-5.117,2.239-5.117,5.118v22.175H377.37v-22.175c0-2.9-2.218-5.118-5.117-5.118h-22.5c-2.918,0-5.135,2.218-5.135,5.118
	v49.997c0,7.996,3.518,15.565,9.706,20.793L375.239,344.845z M412.851,346.721c0-7.591,6.055-13.646,13.646-13.646
	c7.591,0,13.646,6.056,13.646,13.646v27.293h-27.293V346.721z M312.088,479.431l-19.701-9.893v-13.646
	c0-7.592-6.056-13.646-13.646-13.646H142.277c-7.565,0-13.646,6.054-13.646,13.646v13.646l-19.719,9.911
	c-4.695,2.285-7.574,7.062-7.574,12.179v18.85c0,7.591,6.077,13.646,13.646,13.646h191.049c7.569,0,13.646-6.076,13.646-13.646
	v-18.867C319.68,486.511,316.78,481.735,312.088,479.431z M514.43,479.431l-19.701-9.893v-13.646
	c0-7.569-6.077-13.646-13.647-13.646h-109.17c-7.569,0-13.646,6.076-13.646,13.646v13.646l-19.72,9.911
	c-4.673,2.285-7.573,7.062-7.573,12.179v18.85c0,7.569,6.077,13.646,13.646,13.646h163.757c7.569,0,13.646-6.076,13.646-13.646
	v-18.867C522.021,486.511,519.121,481.735,514.43,479.431z"/>
<path fill="#466BD9" d="M550.477,107.11l24.17-26.075c6.246-6.555,5.996-16.933-0.558-23.18c-6.556-6.246-16.933-5.997-23.18,0.558
	c-0.105,0.11-0.209,0.222-0.312,0.335l-22.475,24.247l-22.475-24.247c-6.028-6.757-16.394-7.348-23.149-1.32
	c-6.755,6.028-7.347,16.393-1.318,23.149c0.138,0.155,0.279,0.308,0.424,0.458l24.172,26.075l-24.172,26.076
	c-6.281,6.521-6.085,16.9,0.438,23.182c6.521,6.28,16.901,6.084,23.182-0.437c0.145-0.15,0.286-0.303,0.424-0.458l22.475-24.247
	l22.475,24.247c6.028,6.756,16.394,7.347,23.149,1.318c6.757-6.029,7.348-16.392,1.319-23.148c-0.139-0.156-0.28-0.307-0.425-0.457
	L550.477,107.11z"/>
<path fill="#466BD9" d="M126.391,108.335c0-28.51-23.112-51.622-51.622-51.622s-51.622,23.112-51.622,51.622
	s23.112,51.622,51.622,51.622S126.391,136.844,126.391,108.335L126.391,108.335z"/>
</svg>
