<?xml version="1.0" encoding="utf-8"?>
<!-- Generator: Adobe Illustrator 16.0.0, SVG Export Plug-In . SVG Version: 6.00 Build 0)  -->
<!DOCTYPE svg PUBLIC "-//W3C//DTD SVG 1.1//EN" "http://www.w3.org/Graphics/SVG/1.1/DTD/svg11.dtd">
<svg version="1.1" id="Layer_1" xmlns="http://www.w3.org/2000/svg" xmlns:xlink="http://www.w3.org/1999/xlink" x="0px" y="0px"
	 width="612px" height="570px" viewBox="0 0 612 570" enable-background="new 0 0 612 570" xml:space="preserve">
<g id="Layer_1_1_">
</g>
<g id="Layer_3" display="none">
</g>
<g id="Layer_5" display="none">
</g>
<path fill="#466BD9" d="M292.012,523.17c-123.957,0-224.444-100.487-224.444-224.444c0-123.958,100.487-224.444,224.444-224.444
	s224.444,100.487,224.444,224.444C516.456,422.683,415.969,523.17,292.012,523.17z M336.901,231.393
	c0,6.284-4.713,17.956-9.427,22.444l-35.462,35.462c-12.794,13.019-22.444,35.911-22.444,54.315v22.444h44.889v-22.444
	c0-6.509,4.714-17.955,9.427-22.444l35.462-35.463c12.794-13.017,22.445-35.91,22.445-54.314c0-49.583-40.195-89.778-89.778-89.778
	s-89.778,40.195-89.778,89.778h44.89c0-24.792,20.098-44.89,44.889-44.89S336.901,206.601,336.901,231.393z M269.568,410.948v44.889
	h44.889v-44.889H269.568z"/>
</svg>
