<?xml version="1.0" encoding="utf-8"?>
<!-- Generator: Adobe Illustrator 16.0.0, SVG Export Plug-In . SVG Version: 6.00 Build 0)  -->
<!DOCTYPE svg PUBLIC "-//W3C//DTD SVG 1.1//EN" "http://www.w3.org/Graphics/SVG/1.1/DTD/svg11.dtd">
<svg version="1.1" id="Layer_1" xmlns="http://www.w3.org/2000/svg" xmlns:xlink="http://www.w3.org/1999/xlink" x="0px" y="0px"
	 width="612px" height="570px" viewBox="0 0 612 570" enable-background="new 0 0 612 570" xml:space="preserve">
<g id="Layer_1_1_">
</g>
<g id="Layer_3" display="none">
</g>
<g id="Layer_5" display="none">
</g>
<rect x="70.17" y="68.813" fill="none" width="486" height="486"/>
<g id="Layer_x0020_1">
	<path fill="#466BD9" d="M260.788,487.041c0-19.674,11.415-36.922,27.764-42.08v-36.824H111.348c-5.442,0-9.844-5.098-9.844-11.393
		V122.275c0-6.302,4.402-11.409,9.844-11.409H485.46c5.434,0,9.851,5.107,9.851,11.409v274.469c0,6.295-4.417,11.393-9.851,11.393
		H308.256v36.824c16.349,5.158,27.756,22.387,27.756,42.08 M280.483,487.041 M171.188,323.896
		c-6.621,12.804-23.477,1.139-16.848-11.674l48.417-94.021c3.836-7.42,13.067-7.278,16.831-0.027l25.93,49.572l58.074-74.411
		c8.641-11.071,23.19,4.177,14.548,15.236l-66.377,85.057c-4.158,6.321-12.643,5.901-16.259-1.034l-24.278-46.446L171.188,323.896z
		 M355.715,218.135c-12.962,0-12.962-22.821,0-22.821h78.325c12.961,0,12.961,22.821,0,22.821H355.715z M355.715,323.689
		c-12.962,0-12.962-22.821,0-22.821h78.325c12.961,0,12.961,22.821,0,22.821H355.715z M355.715,270.91
		c-12.962,0-12.962-22.82,0-22.82h78.325c12.961,0,12.961,22.82,0,22.82H355.715z M475.609,133.686H121.199v251.65h354.409V133.686z
		"/>
</g>
</svg>
