<?xml version="1.0" encoding="utf-8"?>
<!-- Generator: Adobe Illustrator 16.0.0, SVG Export Plug-In . SVG Version: 6.00 Build 0)  -->
<!DOCTYPE svg PUBLIC "-//W3C//DTD SVG 1.1//EN" "http://www.w3.org/Graphics/SVG/1.1/DTD/svg11.dtd">
<svg version="1.1" id="Layer_1" xmlns="http://www.w3.org/2000/svg" xmlns:xlink="http://www.w3.org/1999/xlink" x="0px" y="0px"
	 width="612px" height="570px" viewBox="0 0 612 570" enable-background="new 0 0 612 570" xml:space="preserve">
<g id="Layer_1_1_">
</g>
<g id="Layer_3" display="none">
</g>
<g id="Layer_5" display="none">
</g>
<path fill="#466BD9" d="M494.458,199.661c5.867,0,10.667-4.8,10.667-10.667v-35.558c0-5.868-4.8-10.667-10.667-10.667h-17.779
	v-42.67c0-23.557-19.112-42.669-42.67-42.669H149.544c-23.557,0-42.669,19.113-42.669,42.669v369.804
	c0,23.558,19.112,42.67,42.669,42.67h284.464c23.558,0,42.67-19.112,42.67-42.67v-42.67h17.779c5.867,0,10.667-4.8,10.667-10.667
	v-35.558c0-5.868-4.8-10.668-10.667-10.668h-17.779v-56.894h17.779c5.867,0,10.667-4.799,10.667-10.666v-35.559
	c0-5.867-4.8-10.668-10.667-10.668h-17.779v-56.892H494.458z M434.009,469.901H149.544V100.098h284.464V469.901z M291.777,285
	c31.379,0,56.893-25.513,56.893-56.893c0-31.38-25.514-56.893-56.893-56.893c-31.381,0-56.894,25.513-56.894,56.893
	C234.884,259.487,260.396,285,291.777,285z M212.127,398.785h159.3c11.023,0,19.912-7.645,19.912-17.067V364.65
	c0-28.27-26.757-51.205-59.737-51.205c-9.601,0-16.624,7.112-39.824,7.112c-23.913,0-29.691-7.112-39.826-7.112
	c-32.98,0-59.737,22.936-59.737,51.205v17.067C192.214,391.141,201.104,398.785,212.127,398.785z"/>
</svg>
