<?xml version="1.0" encoding="utf-8"?>
<!-- Generator: Adobe Illustrator 16.0.0, SVG Export Plug-In . SVG Version: 6.00 Build 0)  -->
<!DOCTYPE svg PUBLIC "-//W3C//DTD SVG 1.1//EN" "http://www.w3.org/Graphics/SVG/1.1/DTD/svg11.dtd">
<svg version="1.1" id="Layer_1" xmlns="http://www.w3.org/2000/svg" xmlns:xlink="http://www.w3.org/1999/xlink" x="0px" y="0px"
	 width="612px" height="570px" viewBox="0 0 612 570" enable-background="new 0 0 612 570" xml:space="preserve">
<g id="Layer_1_1_">
</g>
<g id="Layer_3" display="none">
</g>
<g id="Layer_5" display="none">
</g>
<g transform="matrix(1,0,0,1,0,-562)">
	<g id="Icons">
		<path fill="#466BD9" d="M267.343,694.209h-17.788c-12.4,0-22.468,9.665-22.468,21.569v12.29h-44.88
			c-18.821,0-34.102,14.669-34.102,32.739v270.955c0,18.067,15.28,32.738,34.102,32.738h227.584
			c18.821,0,34.102-14.671,34.102-32.738V760.807c0-18.069-15.28-32.739-34.102-32.739h-44.88v-12.29
			c0-11.904-10.067-21.569-22.468-21.569h-17.787c6.776-16.913,10.946-36.619,10.946-46.389c0-20.985-17.745-38.022-39.604-38.022
			s-39.604,17.038-39.604,38.022C256.396,657.59,260.567,677.296,267.343,694.209z M434.229,760.807v270.955
			c0,12.944-10.949,23.46-24.437,23.46H182.208c-13.487,0-24.436-10.516-24.436-23.46V760.807c0-12.947,10.949-23.459,24.436-23.459
			h227.584C423.279,737.348,434.229,747.86,434.229,760.807z M229.549,1022.815h132.902c2.668,0,4.833-2.088,4.833-4.64
			c0-2.561-2.165-4.639-4.833-4.639H229.549c-2.668,0-4.833,2.078-4.833,4.639C224.715,1020.728,226.881,1022.815,229.549,1022.815z
			 M229.549,994.985h132.902c2.668,0,4.833-2.079,4.833-4.64s-2.165-4.641-4.833-4.641H229.549c-2.668,0-4.833,2.08-4.833,4.641
			S226.881,994.985,229.549,994.985z M229.549,968.061h132.902c2.668,0,4.833-2.079,4.833-4.638c0-2.563-2.165-4.641-4.833-4.641
			H229.549c-2.668,0-4.833,2.078-4.833,4.641C224.715,965.981,226.881,968.061,229.549,968.061z M362.469,873.661
			c0-14.618-12.361-26.485-27.587-26.485h-77.764c-15.225,0-27.586,11.867-27.586,26.485v51.715c0,2.561,2.164,4.639,4.833,4.639
			h123.272c2.671,0,4.833-2.078,4.833-4.639V873.661z M334.68,920.736h18.124v-47.075c0-9.496-8.031-17.204-17.922-17.204h-77.764
			c-9.891,0-17.921,7.708-17.921,17.204v47.075h18.123V902.42c0-2.559,2.166-4.638,4.833-4.638c2.667,0,4.833,2.079,4.833,4.638
			v18.316h58.029V902.42c0-2.559,2.166-4.638,4.833-4.638s4.832,2.079,4.832,4.638V920.736z M296,759.13
			c-24.27,0-43.972,18.917-43.972,42.217c0,23.3,19.702,42.217,43.972,42.217c24.269,0,43.974-18.917,43.974-42.217
			C339.974,778.047,320.269,759.13,296,759.13z M296,768.41c18.935,0,34.308,14.758,34.308,32.938
			c0,18.179-15.373,32.938-34.308,32.938s-34.307-14.759-34.307-32.938C261.693,783.167,277.065,768.41,296,768.41z
			 M317.497,703.489c-0.052,0-0.104,0-0.155,0h-42.684c-0.052,0-0.104,0-0.155,0h-24.948c-7.066,0-12.802,5.506-12.802,12.29v12.29
			h118.493v-12.29c0-6.784-5.736-12.29-12.802-12.29H317.497z M314.248,694.209c7.123-16.373,11.69-36.665,11.69-46.389
			c0-15.864-13.415-28.743-29.938-28.743c-16.523,0-29.938,12.879-29.938,28.743c0,9.724,4.568,30.016,11.69,46.389H314.248z
			 M296,627.92c-11.44,0-20.728,8.917-20.728,19.9c0,10.983,9.288,19.901,20.728,19.901c11.439,0,20.729-8.917,20.729-19.901
			C316.729,636.837,307.439,627.92,296,627.92z M296,637.199c6.106,0,11.063,4.758,11.063,10.621
			c0,5.862-4.957,10.622-11.063,10.622s-11.062-4.76-11.062-10.622C284.938,641.958,289.894,637.199,296,637.199z"/>
	</g>
</g>
</svg>
