<?xml version="1.0" encoding="utf-8"?>
<!-- Generator: Adobe Illustrator 16.0.0, SVG Export Plug-In . SVG Version: 6.00 Build 0)  -->
<!DOCTYPE svg PUBLIC "-//W3C//DTD SVG 1.1//EN" "http://www.w3.org/Graphics/SVG/1.1/DTD/svg11.dtd">
<svg version="1.1" id="Layer_1" xmlns="http://www.w3.org/2000/svg" xmlns:xlink="http://www.w3.org/1999/xlink" x="0px" y="0px"
	 width="612px" height="570px" viewBox="0 0 612 570" enable-background="new 0 0 612 570" xml:space="preserve">
<g id="Layer_1_1_">
</g>
<g id="Layer_3" display="none">
</g>
<g id="Layer_5" display="none">
</g>
<path fill="#466BD9" d="M434.68,232.459c4.417,0,8.031-3.614,8.031-8.031v-26.771c0-4.418-3.614-8.031-8.031-8.031h-13.385v-32.125
	c0-17.736-14.39-32.125-32.126-32.125H175c-17.735,0-32.125,14.39-32.125,32.125v278.42c0,17.736,14.389,32.125,32.125,32.125
	h214.168c17.736,0,32.126-14.389,32.126-32.125v-32.126h13.385c4.418,0,8.031-3.614,8.031-8.031v-26.771
	c0-4.418-3.613-8.032-8.031-8.032h-13.385v-42.836h13.385c4.418,0,8.031-3.612,8.031-8.029v-26.772c0-4.416-3.613-8.031-8.031-8.031
	h-13.385v-42.833H434.68z M389.169,435.919H175V157.5h214.168L389.169,435.919L389.169,435.919z M282.085,296.71
	c23.624,0,42.833-19.209,42.833-42.834c0-23.625-19.209-42.834-42.833-42.834c-23.626,0-42.835,19.208-42.835,42.834
	C239.251,277.501,258.458,296.71,282.085,296.71z M222.117,382.376h119.935c8.299,0,14.991-5.754,14.991-12.85v-12.85
	c0-21.284-20.145-38.552-44.976-38.552c-7.228,0-12.515,5.354-29.982,5.354c-18.003,0-22.354-5.354-29.984-5.354
	c-24.831,0-44.976,17.269-44.976,38.552v12.849C207.125,376.622,213.818,382.376,222.117,382.376z"/>
</svg>
