<?xml version="1.0" encoding="utf-8"?>
<!-- Generator: Adobe Illustrator 16.0.0, SVG Export Plug-In . SVG Version: 6.00 Build 0)  -->
<!DOCTYPE svg PUBLIC "-//W3C//DTD SVG 1.1//EN" "http://www.w3.org/Graphics/SVG/1.1/DTD/svg11.dtd">
<svg version="1.1" id="Layer_1" xmlns="http://www.w3.org/2000/svg" xmlns:xlink="http://www.w3.org/1999/xlink" x="0px" y="0px"
	 width="612px" height="570px" viewBox="0 0 612 570" enable-background="new 0 0 612 570" xml:space="preserve">
<g id="Layer_1_1_">
</g>
<g id="Layer_3" display="none">
</g>
<g id="Layer_5" display="none">
</g>
<path fill="#466BD9" d="M450.317,222.486c4.96,0,9.019-4.06,9.019-9.019v-30.063c0-4.962-4.059-9.019-9.019-9.019h-15.031v-36.076
	c0-19.917-16.159-36.076-36.077-36.076H158.7c-19.917,0-36.075,16.159-36.075,36.076V450.97c0,19.918,16.159,36.076,36.075,36.076
	h240.508c19.918,0,36.077-16.158,36.077-36.076v-36.076h15.031c4.961,0,9.019-4.059,9.019-9.02v-30.063
	c0-4.962-4.058-9.021-9.019-9.021h-15.031v-48.104h15.031c4.961,0,9.019-4.057,9.019-9.017v-30.065c0-4.959-4.058-9.019-9.019-9.019
	h-15.031v-48.1H450.317z M399.209,450.968H158.7v-312.66h240.508L399.209,450.968L399.209,450.968z M278.956,294.639
	c26.529,0,48.101-21.572,48.101-48.102c0-26.531-21.572-48.102-48.101-48.102c-26.532,0-48.103,21.571-48.103,48.102
	C230.854,273.067,252.423,294.639,278.956,294.639z M211.612,390.84h134.686c9.319,0,16.834-6.462,16.834-14.431V361.98
	c0-23.902-22.622-43.293-50.507-43.293c-8.116,0-14.054,6.013-33.669,6.013c-20.217,0-25.103-6.013-33.671-6.013
	c-27.884,0-50.507,19.392-50.507,43.293v14.428C194.777,384.378,202.293,390.84,211.612,390.84z"/>
</svg>
