<?xml version="1.0" encoding="utf-8"?>
<!-- Generator: Adobe Illustrator 16.0.0, SVG Export Plug-In . SVG Version: 6.00 Build 0)  -->
<!DOCTYPE svg PUBLIC "-//W3C//DTD SVG 1.1//EN" "http://www.w3.org/Graphics/SVG/1.1/DTD/svg11.dtd">
<svg version="1.1" id="Layer_1" xmlns="http://www.w3.org/2000/svg" xmlns:xlink="http://www.w3.org/1999/xlink" x="0px" y="0px"
	 width="612px" height="570px" viewBox="0 0 612 570" enable-background="new 0 0 612 570" xml:space="preserve">
<g id="Layer_1_1_">
</g>
<g id="Layer_3" display="none">
</g>
<g id="Layer_5" display="none">
</g>
<path fill="#466BD9" d="M450.646,232.111c4.779,0,8.69-3.912,8.69-8.691v-28.97c0-4.781-3.911-8.69-8.69-8.69h-14.484v-34.764
	c0-19.192-15.571-34.763-34.765-34.763H169.638c-19.192,0-34.763,15.571-34.763,34.763v301.286
	c0,19.193,15.571,34.764,34.763,34.764h231.758c19.193,0,34.765-15.57,34.765-34.764v-34.764h14.484c4.78,0,8.69-3.911,8.69-8.691
	v-28.969c0-4.781-3.91-8.692-8.69-8.692H436.16v-46.354h14.484c4.78,0,8.69-3.909,8.69-8.688v-28.972c0-4.779-3.91-8.691-8.69-8.691
	H436.16v-46.35H450.646z M401.396,452.28H169.638V150.996h231.758L401.396,452.28L401.396,452.28z M285.518,301.639
	c25.564,0,46.351-20.787,46.351-46.352c0-25.566-20.787-46.352-46.351-46.352c-25.567,0-46.353,20.786-46.353,46.352
	C239.166,280.852,259.951,301.639,285.518,301.639z M220.625,394.34H350.41c8.98,0,16.222-6.227,16.222-13.905V366.53
	c0-23.032-21.799-41.718-48.669-41.718c-7.821,0-13.543,5.794-32.444,5.794c-19.482,0-24.19-5.794-32.446-5.794
	c-26.87,0-48.669,18.687-48.669,41.718v13.903C204.402,388.113,211.645,394.34,220.625,394.34z"/>
</svg>
