<?xml version="1.0" encoding="utf-8"?>
<!-- Generator: Adobe Illustrator 16.0.0, SVG Export Plug-In . SVG Version: 6.00 Build 0)  -->
<!DOCTYPE svg PUBLIC "-//W3C//DTD SVG 1.1//EN" "http://www.w3.org/Graphics/SVG/1.1/DTD/svg11.dtd">
<svg version="1.1" id="Layer_1" xmlns="http://www.w3.org/2000/svg" xmlns:xlink="http://www.w3.org/1999/xlink" x="0px" y="0px"
	 width="612px" height="570px" viewBox="0 0 612 570" enable-background="new 0 0 612 570" xml:space="preserve">
<g id="Layer_1_1_">
</g>
<g id="Layer_3" display="none">
</g>
<g id="Layer_5" display="none">
</g>
<path fill="#466BD9" d="M157.922,453.079c-0.04-51.98,29.88-99.329,76.844-121.605v-64.165
	c-46.963-22.276-76.884-69.625-76.844-121.604H119.5v-38.422h345.797v38.422h-38.424c0.043,51.979-29.879,99.328-76.842,121.604
	v64.165c46.963,22.276,76.885,69.625,76.842,121.605h38.424V491.5H119.5v-38.421H157.922z M196.344,145.704
	c-0.009,45.652,32.114,85.004,76.843,94.133v59.555h38.423v-59.555c44.729-9.129,76.854-48.48,76.844-94.133H196.344z"/>
</svg>
