<?xml version="1.0" encoding="utf-8"?>
<!-- Generator: Adobe Illustrator 16.0.0, SVG Export Plug-In . SVG Version: 6.00 Build 0)  -->
<!DOCTYPE svg PUBLIC "-//W3C//DTD SVG 1.1//EN" "http://www.w3.org/Graphics/SVG/1.1/DTD/svg11.dtd">
<svg version="1.1" id="Layer_1" xmlns="http://www.w3.org/2000/svg" xmlns:xlink="http://www.w3.org/1999/xlink" x="0px" y="0px"
	 width="612px" height="570px" viewBox="0 0 612 570" enable-background="new 0 0 612 570" xml:space="preserve">
<g id="Layer_1_1_">
</g>
<g id="Layer_3" display="none">
</g>
<g id="Layer_5" display="none">
</g>
<path fill="#466BD9" d="M146.056,480.394c-0.046-58.926,33.873-112.601,87.111-137.854v-72.738
	c-53.238-25.253-87.157-78.928-87.111-137.853H102.5V88.394h392v43.555h-43.557c0.048,58.925-33.871,112.6-87.11,137.853v72.738
	c53.239,25.253,87.158,78.928,87.11,137.854H494.5v43.555h-392v-43.555H146.056z M189.612,131.949
	c-0.01,51.752,36.405,96.361,87.11,106.711v67.512h43.557V238.66c50.705-10.35,87.122-54.959,87.111-106.711H189.612z"/>
</svg>
