<?xml version="1.0" encoding="UTF-8" standalone="no"?>
<!-- Generator: Adobe Illustrator 16.0.0, SVG Export Plug-In . SVG Version: 6.00 Build 0)  -->

<svg
   version="1.1"
   id="Layer_1"
   x="0px"
   y="0px"
   width="612px"
   height="570px"
   viewBox="0 0 612 570"
   enable-background="new 0 0 612 570"
   xml:space="preserve"
   sodipodi:docname="solicitacao_dijur.svg"
   inkscape:version="1.4.4 (dcaf3e7, 2026-05-05)"
   xmlns:inkscape="http://www.inkscape.org/namespaces/inkscape"
   xmlns:sodipodi="http://sodipodi.sourceforge.net/DTD/sodipodi-0.dtd"
   xmlns="http://www.w3.org/2000/svg"
   xmlns:svg="http://www.w3.org/2000/svg"><defs
   id="defs8" /><sodipodi:namedview
   id="namedview8"
   pagecolor="#505050"
   bordercolor="#eeeeee"
   borderopacity="1"
   inkscape:showpageshadow="0"
   inkscape:pageopacity="0"
   inkscape:pagecheckerboard="0"
   inkscape:deskcolor="#505050"
   showgrid="false"
   inkscape:zoom="1.4157895"
   inkscape:cx="305.83643"
   inkscape:cy="285"
   inkscape:window-width="1920"
   inkscape:window-height="1009"
   inkscape:window-x="1912"
   inkscape:window-y="-8"
   inkscape:window-maximized="1"
   inkscape:current-layer="g8" />
<g
   id="Layer_1_1_">
</g>
<g
   id="Layer_3"
   display="none">
</g>
<g
   id="Layer_5"
   display="none">
</g>
<g
   id="g8">
	<path
   fill="#E1EDFF"
   d="M404.366,282.161v65.75c0,9.104-7.38,16.483-16.481,16.483H249.111v28.126h161.573   c11.929,0,21.633-9.704,21.633-21.633V282.16L404.366,282.161L404.366,282.161z"
   id="path1" />
	<g
   id="g2">
		<path
   fill="#466BD9"
   d="M481.105,369.634h-89.741c-2.848,0-5.152-2.307-5.152-5.152s2.306-5.152,5.152-5.152h89.741    c8.191,0,14.854-6.663,14.854-14.857c0-8.19-6.663-14.854-14.854-14.854h-73.822c-2.843,0-5.15-2.306-5.15-5.152    c0-2.845,2.308-5.152,5.15-5.152h73.822c13.872,0,25.154,11.288,25.154,25.156C506.262,358.349,494.978,369.634,481.105,369.634z"
   id="path2" />
	</g>
	<g
   id="g3">
		<path
   fill="#466BD9"
   d="M481.105,453.766H464.59c-13.871,0-25.157-11.289-25.157-25.158c0-13.873,11.29-25.154,25.157-25.154    h16.516c13.872,0,25.154,11.285,25.154,25.154C506.262,442.479,494.978,453.766,481.105,453.766z M464.59,413.753    c-8.191,0-14.855,6.663-14.855,14.854c0,8.191,6.664,14.857,14.855,14.857h16.516c8.191,0,14.854-6.666,14.854-14.857    c0-8.19-6.663-14.854-14.854-14.854H464.59z"
   id="path3" />
	</g>
	<g
   id="g4">
		<path
   fill="#466BD9"
   d="M380.054,453.766h-66.287c-13.875,0-25.156-11.289-25.156-25.158c0-13.873,11.287-25.154,25.156-25.154    h66.287c13.872,0,25.154,11.285,25.154,25.154C405.21,442.479,393.925,453.766,380.054,453.766z M313.766,413.753    c-8.191,0-14.854,6.663-14.854,14.854c0,8.191,6.664,14.857,14.854,14.857h66.287c8.191,0,14.852-6.666,14.852-14.857    c0-8.19-6.66-14.854-14.852-14.854H313.766z"
   id="path4" />
	</g>
	<g
   id="g5">
		<g
   id="Icon-Envelope"
   transform="translate(78.000000, 232.000000)">
			<path
   id="Fill-3"
   fill="#466BD9"
   d="M338.434-91.893l-14.117-14.115L193.561,24.748c-16.345,16.344-43.832,16.344-60.177,0     L2.627-105.266L-11.488-91.15L85.836,6.175l-97.325,97.324l14.115,14.116l97.325-97.325l19.316,19.316     c11.887,11.887,27.488,18.572,43.833,18.572c16.343,0,31.946-6.685,43.833-18.572l19.315-19.316l97.325,97.325l14.115-14.116     L240.366,6.174L338.434-91.893" />
			<path
   id="Fill-4"
   fill="#466BD9"
   d="M310.945,142.874H17.485c-17.087,0-31.204-14.115-31.204-31.203V-97.836     c0-17.086,14.116-31.202,31.204-31.202h293.459c17.085,0,31.203,14.115,31.203,31.202V111.67     C342.148,128.759,328.031,142.874,310.945,142.874L310.945,142.874z M16.744-108.979c-5.943,0-10.402,4.457-10.402,10.401     v209.507c0,5.943,4.458,10.402,10.402,10.402h293.458c5.944,0,10.4-4.458,10.4-10.402V-98.578c0-5.943-4.456-10.402-10.4-10.402     H16.744V-108.979z" />
		</g>
	</g>
	
	<g
   id="g7">
		<path
   fill="#466BD9"
   d="M521.113,523.544c-3.042,0-6.055-0.983-8.598-2.906l-32.318-24.462H274.355    c-15.151,0-27.476-12.328-27.476-27.479v-87.015c0-2.846,2.307-5.151,5.151-5.151c2.845,0,5.151,2.306,5.151,5.151v87.015    c0,9.471,7.705,17.179,17.175,17.179h207.572c1.122,0,2.211,0.366,3.106,1.046l33.701,25.507c1.77,1.341,3.5,0.716,4.162,0.388    c0.661-0.328,2.201-1.333,2.201-3.553v-20.465c0-1.971,1.126-3.773,2.902-4.635c5.979-2.896,9.694-8.822,9.694-15.461V304.605    c0-9.471-7.705-17.178-17.18-17.178h-96.005c-2.843,0-5.153-2.305-5.153-5.152c0-2.844,2.312-5.152,5.153-5.152h96.006    c15.152,0,27.48,12.329,27.48,27.479v164.091c0,9.341-4.854,18.08-12.596,23.101v17.466c0,5.452-3.036,10.35-7.92,12.775    C525.451,523.047,523.275,523.544,521.113,523.544z"
   id="path6" />
	</g>
<path
   fill="#466bd9"
   d="m 567.37432,96.181145 -0.0955,-0.21798 0.0549,-0.0414 -0.68816,-1.31821 -37.06763,-70.571996 c -1.0083,-1.841992 -4.53284,-7.25086 -11.30812,-7.25086 H 394.10949 c -7.55981,0 -11.34286,7.447215 -11.42663,7.620605 l -36.4011,69.308721 -0.014,0.0306 -0.25896,0.48864 c -0.60979,1.20653 -1.96449,4.48653 -0.6197,7.726895 9.24777,15.01512 25.73468,25.08616 44.66077,25.08616 18.50319,0 34.64423,-9.65265 43.99783,-24.11023 1.43126,-3.284045 -0.56205,-7.397665 -0.56205,-7.397665 l -34.43796,-65.583314 -0.33553,-0.635463 c -0.46387,-1.068713 -0.87595,-3.103457 2.81658,-3.103457 h 45.15347 c 1.27993,0.04233 4.85131,0.676447 4.85131,6.655926 V 188.23683 c -0.0851,1.53619 -0.66788,4.65496 -3.86862,6.62801 l -22.60417,13.98154 c 0,0 -5.92858,3.74162 0,3.74162 h 64.14441 c 4.37258,0 0,-3.0332 0,-3.0332 l -23.28561,-14.25311 c -0.0135,-0.007 -0.0135,-0.0131 -0.0203,-0.0203 -3.8308,-2.34459 -4.54643,-5.29583 -4.64821,-6.78788 V 32.206077 c 0,-5.403914 3.87178,-5.961014 5.23503,-5.99344 h 44.14871 c 1.15563,0.02207 4.67702,0.405777 2.46123,4.644601 l -34.57307,65.814347 c 0,0 -1.08357,2.59049 0.13646,5.431385 9.25723,14.92956 25.68109,24.93934 44.54458,24.93934 18.90176,0 35.38373,-10.03005 44.6333,-25.0096 0.92414,-2.414845 -0.11485,-5.094955 -0.46298,-5.851565 z m -145.06936,-2.07393 0.003,0.004 0.47423,0.91109 c 0.73275,1.51367 1.83884,4.3969 -0.47423,4.3969 l -65.64006,-0.007 c -2.17796,0 -1.74516,-1.99376 -1.0516,-3.60291 l 1.04169,-1.9744 0.01,-0.0171 31.29082,-59.580412 c 0,0 1.59834,-2.471146 2.89674,0 h 0.004 z m 67.63517,0.72238 0.46343,-0.88271 c 0,-0.003 0.0171,-0.036 0.0171,-0.036 l 30.59547,-58.250938 c 0.041,-0.0635 2.11581,-4.013192 4.23297,0.01036 l 30.50314,58.070348 c 0.63005,1.24886 2.55896,5.68449 -1.96674,5.68449 l -60.918,-0.0104 c -0.009,0 -0.009,0 -0.009,0 -4.43833,-0.003 -3.63669,-3.02645 -2.91791,-4.58515 z"
   id="path1-9"
   style="fill:#da0000;fill-opacity:1;stroke-width:0.450364" /></g>
</svg>
