<?xml version="1.0" encoding="utf-8"?>
<!-- Generator: Adobe Illustrator 16.0.0, SVG Export Plug-In . SVG Version: 6.00 Build 0)  -->
<!DOCTYPE svg PUBLIC "-//W3C//DTD SVG 1.1//EN" "http://www.w3.org/Graphics/SVG/1.1/DTD/svg11.dtd">
<svg version="1.1" id="Layer_1" xmlns="http://www.w3.org/2000/svg" xmlns:xlink="http://www.w3.org/1999/xlink" x="0px" y="0px"
	 width="612px" height="570px" viewBox="0 0 612 570" enable-background="new 0 0 612 570" xml:space="preserve">
<g id="Layer_1_1_">
</g>
<g id="Layer_3" display="none">
</g>
<g id="Layer_5" display="none">
</g>
<path fill="#466BD9" d="M73.5,129.625C73.5,90.616,105.116,59,144.125,59h254.25C437.385,59,469,90.616,469,129.625v115.813
	c-21.188-10.828-45.189-16.938-70.625-16.938C312.576,228.5,243,298.076,243,383.875c0,25.436,6.11,49.438,16.938,70.625H144.125
	c-39.009,0-70.625-31.616-70.625-70.625V129.625z M238.862,167.862c5.518-5.518,5.518-14.457,0-19.975s-14.457-5.518-19.975,0
	L172.375,194.4l-18.263-18.263c-5.518-5.518-14.457-5.518-19.975,0s-5.518,14.457,0,19.975l28.25,28.25
	c5.518,5.518,14.457,5.518,19.975,0L238.862,167.862z M238.862,289.139c-5.518-5.518-14.457-5.518-19.975,0l-46.513,46.512
	l-18.263-18.263c-5.518-5.518-14.457-5.518-19.975,0s-5.518,14.456,0,19.974l28.25,28.25c5.518,5.518,14.457,5.518,19.975,0
	l56.5-56.5C244.38,303.594,244.38,294.656,238.862,289.139z M285.375,172c-7.792,0-14.125,6.319-14.125,14.125
	s6.333,14.125,14.125,14.125h84.75c7.779,0,14.125-6.319,14.125-14.125S377.904,172,370.125,172H285.375z M398.375,511
	c70.212,0,127.125-56.913,127.125-127.125S468.587,256.75,398.375,256.75S271.25,313.663,271.25,383.875S328.163,511,398.375,511z
	 M398.375,313.25"/>
<path fill="#FFFFFF" d="M333.397,328.121h27.284v18.909h-56.727V290.22h18.908v21.417c21.152-22.178,45.257-30.788,75.637-30.788
	c57.438,0,104,46.563,104,104s-46.563,104-104,104s-104-46.563-104-104h18.908c0,46.996,38.096,85.092,85.092,85.092
	s85.092-38.096,85.092-85.092s-38.096-85.09-85.092-85.09C371.641,299.759,351.647,307.24,333.397,328.121z M407.955,375.394h37.817
	v18.91h-56.727v-66.183h18.909V375.394z"/>
</svg>
